<?xml version="1.0" encoding="utf-8"?>
<svg width="19px" height="17px" viewBox="0 0 19 17" version="1.1" xmlns:xlink="http://www.w3.org/1999/xlink" xmlns="http://www.w3.org/2000/svg">
  <path d="M7.05183 9.96345L7.0516 9.96328L7.05186 9.96304L7.05187 9.96286L7.05198 9.96293L14.7271 3.03669C15.064 2.73772 14.6536 2.59193 14.2064 2.8631L4.73373 8.8393L0.642054 7.56222C-0.241567 7.29167 -0.247913 6.68447 0.840438 6.24794L16.7848 0.0998741C17.513 -0.230737 18.2159 0.27478 17.9379 1.38935L15.2225 14.185C15.0329 15.0942 14.4835 15.3117 13.7223 14.8917L9.58602 11.8357L7.59783 13.769C7.36686 13.9936 7.18402 14.1828 6.7702 14.1828L7.05183 9.96345Z" transform="translate(0.5 0.5)" id="Combined-Shape" fill="currentColor" fill-rule="evenodd" stroke="none" />
</svg>
