<?xml version="1.0" encoding="utf-8"?>
<svg width="18px" height="11px" viewBox="0 0 18 11" version="1.1" xmlns:xlink="http://www.w3.org/1999/xlink" xmlns="http://www.w3.org/2000/svg">
  <path d="M9.88275 10.0379C9.88275 10.0379 10.2076 10.0024 10.374 9.82701C10.5263 9.66627 10.521 9.36295 10.521 9.36295C10.521 9.36295 10.5008 7.94656 11.1707 7.73743C11.831 7.53175 12.6788 9.10715 13.5786 9.71294C14.2582 10.171 14.7741 10.0707 14.7741 10.0707L17.1785 10.0379C17.1785 10.0379 18.4356 9.96182 17.8396 8.99135C17.7903 8.91184 17.4919 8.27322 16.0525 6.96139C14.5444 5.58821 14.7469 5.81031 16.5622 3.43468C17.668 1.98804 18.1099 1.10485 17.9717 0.727208C17.8405 0.365981 17.027 0.461905 17.027 0.461905L14.3207 0.478325C14.3207 0.478325 14.12 0.451535 13.9712 0.538817C13.826 0.624371 13.7318 0.823996 13.7318 0.823996C13.7318 0.823996 13.3039 1.94311 12.7325 2.89543C11.5273 4.90378 11.0457 5.01008 10.8485 4.88564C10.3898 4.59441 10.5043 3.71727 10.5043 3.09419C10.5043 1.1472 10.8054 0.335735 9.91884 0.12574C9.6248 0.0557413 9.40822 0.00993981 8.6555 0.0021622C7.68972 -0.00734376 6.87273 0.00561892 6.40965 0.227713C6.10151 0.375487 5.86381 0.705604 6.00907 0.724616C6.18779 0.747948 6.59276 0.831774 6.80758 1.11868C7.0849 1.48941 7.07521 2.32075 7.07521 2.32075C7.07521 2.32075 7.23456 4.61256 6.70281 4.89687C6.33833 5.09217 5.83828 4.69379 4.76333 2.87124C4.2131 1.93792 3.79756 0.906093 3.79756 0.906093C3.79756 0.906093 3.71744 0.713381 3.57394 0.60968C3.4005 0.484374 3.1584 0.445486 3.1584 0.445486L0.586807 0.461905C0.586807 0.461905 0.20032 0.472275 0.0585791 0.637334C-0.0673154 0.78338 0.0488949 1.08671 0.0488949 1.08671C0.0488949 1.08671 2.06233 5.71093 4.34251 8.04162C6.43342 10.1779 8.80692 10.0379 8.80692 10.0379L9.88275 10.0379Z" id="Shape" fill="currentColor" fill-rule="evenodd" stroke="none" />
</svg>
