<?xml version="1.0" encoding="utf-8"?>
<svg width="35px" height="35px" viewBox="0 0 35 35" version="1.1" xmlns:xlink="http://www.w3.org/1999/xlink" xmlns="http://www.w3.org/2000/svg">
  <g id="Vimeo-Copy-3">
    <path d="M0 17.5C0 7.83502 7.83502 0 17.5 0C27.165 0 35 7.83502 35 17.5C35 27.165 27.165 35 17.5 35C7.83502 35 0 27.165 0 17.5Z" id="back" fill="#31AFD8" fill-rule="evenodd" stroke="none" />
    <path d="M20.9898 4.20146C20.8963 6.24557 19.4688 9.04401 16.7069 12.5968C13.8518 16.3065 11.4359 18.1622 9.46061 18.1622C8.23599 18.1622 7.20026 17.033 6.35389 14.7729C5.78893 12.7012 5.22444 10.6297 4.65923 8.55799C4.03057 6.29909 3.35687 5.16842 2.63571 5.16842C2.47855 5.16842 1.92883 5.49898 0.987544 6.15718L0 4.88485C1.03646 3.97456 2.05863 3.06402 3.06434 2.15227C4.44661 0.958406 5.48501 0.329991 6.17663 0.266786C7.81027 0.109621 8.81622 1.22648 9.19375 3.61736C9.60179 6.19738 9.8844 7.80171 10.0428 8.42964C10.5145 10.5701 11.033 11.6393 11.5989 11.6393C12.038 11.6393 12.6986 10.9452 13.5791 9.55619C14.4579 8.16811 14.9292 7.11179 14.9926 6.38578C15.1183 5.1878 14.647 4.58723 13.5791 4.58723C13.0764 4.58723 12.5579 4.70298 12.0246 4.93159C13.057 1.55171 15.0287 -0.0899215 17.939 0.00379585C20.0967 0.0670006 21.1145 1.46622 20.9898 4.20146" transform="translate(6.4166665 9.916667)" id="Fill-4" fill="#FFFFFE" fill-rule="evenodd" stroke="none" />
  </g>
</svg>