<?xml version="1.0" encoding="utf-8"?>
<svg width="22px" height="14px" viewBox="0 0 22 14" version="1.1" xmlns:xlink="http://www.w3.org/1999/xlink" xmlns="http://www.w3.org/2000/svg">
  <g id="account">
    <path d="M18.2742 3.25521L20.735 5.81853L20.735 9.24479L11.2597 9.24479C10.224 11.2209 8.2271 12.5 6 12.5C2.68647 12.5 0 9.7016 0 6.25C0 2.7984 2.68647 0 6 0C8.2271 0 10.224 1.27909 11.2597 3.25521L18.2742 3.25521ZM17.4458 5.33854L9.95514 5.33854L9.70203 4.68828C9.09376 3.12558 7.64034 2.08333 6 2.08333C3.79103 2.08333 2 3.94899 2 6.25C2 8.55101 3.79103 10.4167 6 10.4167C7.64034 10.4167 9.09376 9.37442 9.70203 7.81172L9.95514 7.16146L18.735 7.16146L18.735 6.68147L17.4458 5.33854ZM4.74963 4.81771C5.50991 4.81771 6.12463 5.45804 6.12463 6.25C6.12463 7.04196 5.50991 7.68229 4.74963 7.68229C3.99018 7.68229 3.37462 7.04153 3.37462 6.25C3.37462 5.45847 3.99018 4.81771 4.74963 4.81771Z" transform="translate(0.625375 0.9010417)" id="Stroke-3" fill="#00B956" fill-rule="evenodd" stroke="none" />
  </g>
</svg>