<?xml version="1.0" encoding="utf-8"?>
<svg width="36px" height="35px" viewBox="0 0 36 35" version="1.1" xmlns:xlink="http://www.w3.org/1999/xlink" xmlns="http://www.w3.org/2000/svg">
  <g id="Youtube-Copy-3">
    <path d="M0 17.5C0 7.83502 7.93822 0 17.7305 0C27.5228 0 35.461 7.83502 35.461 17.5C35.461 27.165 27.5228 35 17.7305 35C7.93822 35 0 27.165 0 17.5Z" id="back" fill="#CE1312" fill-rule="evenodd" stroke="none" />
    <path d="M18.6964 2.89412C18.6964 2.89412 18.5117 1.57969 17.9457 1.00087C17.2275 0.240829 16.4225 0.237252 16.0536 0.19314C13.4109 0 9.44675 0 9.44675 0L9.43849 0C9.43849 0 5.47436 0 2.83161 0.19314C2.46216 0.237252 1.65777 0.240829 0.938951 1.00087C0.372984 1.57969 0.188852 2.89412 0.188852 2.89412C0.188852 2.89412 0 4.43805 0 5.98138L0 7.42873C0 8.97266 0.188852 10.516 0.188852 10.516C0.188852 10.516 0.372984 11.8304 0.938951 12.4092C1.65777 13.1693 2.60144 13.1454 3.02164 13.2247C4.53246 13.3714 9.44262 13.4167 9.44262 13.4167C9.44262 13.4167 13.4109 13.4107 16.0536 13.2176C16.4225 13.1729 17.2275 13.1693 17.9457 12.4092C18.5117 11.8304 18.6964 10.516 18.6964 10.516C18.6964 10.516 18.8852 8.97266 18.8852 7.42873L18.8852 5.98138C18.8852 4.43805 18.6964 2.89412 18.6964 2.89412L18.6964 2.89412Z" transform="translate(8.262295 11.083333)" id="Youtube" fill="#FFFFFF" fill-rule="evenodd" stroke="none" />
    <path d="M0.000590164 5.35963L0 0L5.10256 2.68906L0.000590164 5.35963Z" transform="translate(15.754426 14.906192)" id="Path" fill="#CE1312" fill-rule="evenodd" stroke="none" />
  </g>
</svg>