<?xml version="1.0" encoding="utf-8"?>
<svg width="35px" height="35px" viewBox="0 0 35 35" version="1.1" xmlns:xlink="http://www.w3.org/1999/xlink" xmlns="http://www.w3.org/2000/svg">
  <g id="VK-Copy-2">
    <path d="M0 17.5C0 7.83502 7.83502 0 17.5 0C27.165 0 35 7.83502 35 17.5C35 27.165 27.165 35 17.5 35C7.83502 35 0 27.165 0 17.5Z" id="back" fill="#4C6C91" fill-rule="evenodd" stroke="none" />
    <path d="M10.2488 10.4096C10.2488 10.4096 10.5857 10.3729 10.7582 10.191C10.9162 10.0243 10.9107 9.70972 10.9107 9.70972C10.9107 9.70972 10.8897 8.24087 11.5845 8.024C12.2692 7.8107 13.1484 9.44445 14.0815 10.0727C14.7863 10.5477 15.3213 10.4437 15.3213 10.4437L17.8147 10.4096C17.8147 10.4096 19.1184 10.3308 18.5004 9.32436C18.4492 9.24191 18.1397 8.57963 16.647 7.21922C15.083 5.79518 15.293 6.0255 17.1756 3.56189C18.3223 2.06168 18.7806 1.14577 18.6373 0.754142C18.5013 0.379536 17.6577 0.479013 17.6577 0.479013L14.8511 0.49604C14.8511 0.49604 14.643 0.468259 14.4887 0.558773C14.338 0.647496 14.2404 0.854514 14.2404 0.854514C14.2404 0.854514 13.7966 2.01507 13.2041 3.00267C11.9542 5.0854 11.4548 5.19564 11.2503 5.06659C10.7747 4.76457 10.8933 3.85494 10.8933 3.20879C10.8933 1.18969 11.2056 0.34817 10.2862 0.130397C9.98127 0.0578058 9.75667 0.010308 8.97607 0.00224229C7.97452 -0.00761575 7.12727 0.00582703 6.64704 0.236147C6.32749 0.389394 6.08099 0.731737 6.23163 0.751453C6.41697 0.77565 6.83694 0.86258 7.05971 1.16011C7.3473 1.54458 7.33726 2.40671 7.33726 2.40671C7.33726 2.40671 7.50251 4.78339 6.95106 5.07824C6.57309 5.28077 6.05451 4.86763 4.93975 2.97758C4.36914 2.0097 3.93821 0.939652 3.93821 0.939652C3.93821 0.939652 3.85512 0.739803 3.70631 0.632261C3.52645 0.502314 3.27538 0.461985 3.27538 0.461985L0.608541 0.479013C0.608541 0.479013 0.20774 0.489767 0.0607487 0.660938C-0.0698085 0.812394 0.0507058 1.12695 0.0507058 1.12695C0.0507058 1.12695 2.13871 5.92244 4.50335 8.33945C6.67169 10.5548 9.1331 10.4096 9.1331 10.4096L10.2488 10.4096Z" transform="translate(8.166667 12.25)" id="Shape" fill="#FFFFFF" fill-rule="evenodd" stroke="none" />
  </g>
</svg>