<?xml version="1.0" encoding="utf-8"?>
<svg width="48px" height="48px" viewBox="0 0 48 48" version="1.1" xmlns:xlink="http://www.w3.org/1999/xlink" xmlns="http://www.w3.org/2000/svg">
  <g id="Icons32Gag-Copy-2" opacity="0.8">
    <path d="M32.25 16.5C26.949 16.5 23.688 11.5305 22.6905 9.75C23.688 7.9695 26.949 3 32.25 3C35.9715 3 39 6.0285 39 9.75C39 13.4715 35.9715 16.5 32.25 16.5M9.75 16.5C6.0285 16.5 3 13.4715 3 9.75C3 6.0285 6.0285 3 9.75 3C15.051 3 18.312 7.9695 19.3095 9.75C18.312 11.5305 15.051 16.5 9.75 16.5M32.25 0C26.544 0 22.8375 4.068 21 6.777C19.1625 4.068 15.456 0 9.75 0C4.374 0 0 4.374 0 9.75C0 15.126 4.374 19.5 9.75 19.5C15.456 19.5 19.1625 15.432 21 12.723C22.8375 15.432 26.544 19.5 32.25 19.5C37.626 19.5 42 15.126 42 9.75C42 4.374 37.626 0 32.25 0" transform="translate(3 15)" id="Page-1-Copy-10" fill="#000000" fill-rule="evenodd" stroke="none" />
  </g>
</svg>