<svg xmlns:xlink="http://www.w3.org/1999/xlink" xmlns="http://www.w3.org/2000/svg" version="1.1" viewBox="11.42 8.75 18.5 24.65">
  <g id="Group" transform="translate(1 1)">
    <path d="M0 0L0 4.0485C0 8.6055 3.6945 12.2985 8.25 12.2985C12.8055 12.2985 16.5 8.6055 16.5 4.0485L16.5 0" transform="translate(11.416667 19.1006)" id="Stroke-1" fill="none" fill-rule="evenodd" stroke="#333333" stroke-width="2"/>
    <path d="M0 3L0 10.5L16.5 10.5L16.5 3L14.25 3L12.75 6L11.25 6L9.1065 0L7.2855 0L5.25 6L3.75 6L2.25 3L0 3Z" transform="translate(11.416667 8.75)" id="Stroke-3" fill="none" fill-rule="evenodd" stroke="#333333" stroke-width="2"/>
    <path d="M0 0L40 0L40 40L0 40L0 0Z" id="Rectangle-6" fill="none" fill-rule="evenodd" stroke="none"/>
  </g>
</svg>