<?xml version="1.0" encoding="utf-8"?>
<svg width="32px" height="32px" viewBox="0 0 32 32" version="1.1" xmlns:xlink="http://www.w3.org/1999/xlink" xmlns="http://www.w3.org/2000/svg">
  <defs>
    <path d="M13 2L13 0C23.477 0 32 8.523 32 19L30 19C30 9.626 22.374 2 13 2M13 14L13 12C16.859 12 20 15.141 20 19L18 19C18 16.243 15.757 14 13 14M13 8L13 6C20.168 6 26 11.832 26 19L24 19C24 12.935 19.065 8 13 8M2 14.3848L3.557 12.8278L7.404 16.8298L5 19.2348L5.33 19.8818C6.865 22.8918 9.108 24.9808 12.118 26.5158L12.766 26.8458L15.17 24.4418L19.172 28.4438L17.615 29.9998L17.476 29.9998C9.059 29.9998 2 23.0118 2 14.5248L2 14.3848ZM17.476 31.9998L18.443 31.9998L22 28.4438L15.17 21.6138L12.394 24.3898C10.247 23.1508 8.695 21.7528 7.456 19.6068L10.232 16.8298L3.557 9.9998L0 13.5568L0 14.5248C0 23.9998 8 31.9998 17.476 31.9998L17.476 31.9998Z" id="path_1" />
    <clipPath id="mask_1">
      <use xlink:href="#path_1" />
    </clipPath>
  </defs>
  <g id="Group-52-Copy">
    <path d="M13 2L13 0C23.477 0 32 8.523 32 19L30 19C30 9.626 22.374 2 13 2M13 14L13 12C16.859 12 20 15.141 20 19L18 19C18 16.243 15.757 14 13 14M13 8L13 6C20.168 6 26 11.832 26 19L24 19C24 12.935 19.065 8 13 8M2 14.3848L3.557 12.8278L7.404 16.8298L5 19.2348L5.33 19.8818C6.865 22.8918 9.108 24.9808 12.118 26.5158L12.766 26.8458L15.17 24.4418L19.172 28.4438L17.615 29.9998L17.476 29.9998C9.059 29.9998 2 23.0118 2 14.5248L2 14.3848ZM17.476 31.9998L18.443 31.9998L22 28.4438L15.17 21.6138L12.394 24.3898C10.247 23.1508 8.695 21.7528 7.456 19.6068L10.232 16.8298L3.557 9.9998L0 13.5568L0 14.5248C0 23.9998 8 31.9998 17.476 31.9998L17.476 31.9998Z" id="Mask" fill="#00B956" fill-rule="evenodd" stroke="none" />
  </g>
</svg>