<?xml version="1.0" encoding="utf-8"?>
<svg width="28px" height="32px" viewBox="0 0 28 32" version="1.1" xmlns:xlink="http://www.w3.org/1999/xlink" xmlns="http://www.w3.org/2000/svg">
  <defs>
    <path d="M26 32L26 20L28 20L28 10L23.4 10C24.4 8.9 25 7.5 25 6C25 2.7 22.3 0 19 0C16.9 0 15.1 1.1 14 2.7C12.9 1.1 11.1 0 9 0C5.7 0 3 2.7 3 6C3 7.5 3.6 8.9 4.6 10L0 10L0 20L2 20L2 32L26 32ZM4 20L13 20L13 30L4 30L4 20ZM24 30L15 30L15 20L24 20L24 30ZM19 2C21.2 2 23 3.8 23 6C23 8.2 21.2 10 19 10L15 10L15 6C15 3.8 16.8 2 19 2ZM5 6C5 3.8 6.8 2 9 2C11.2 2 13 3.8 13 6L13 10L9 10C6.8 10 5 8.2 5 6ZM2 12L9 12L13 12L15 12L19 12L26 12L26 18L2 18L2 12Z" id="path_1" />
    <clipPath id="mask_1">
      <use xlink:href="#path_1" />
    </clipPath>
  </defs>
  <g id="Group-53-Copy-2">
    <path d="M26 32L26 20L28 20L28 10L23.4 10C24.4 8.9 25 7.5 25 6C25 2.7 22.3 0 19 0C16.9 0 15.1 1.1 14 2.7C12.9 1.1 11.1 0 9 0C5.7 0 3 2.7 3 6C3 7.5 3.6 8.9 4.6 10L0 10L0 20L2 20L2 32L26 32ZM4 20L13 20L13 30L4 30L4 20ZM24 30L15 30L15 20L24 20L24 30ZM19 2C21.2 2 23 3.8 23 6C23 8.2 21.2 10 19 10L15 10L15 6C15 3.8 16.8 2 19 2ZM5 6C5 3.8 6.8 2 9 2C11.2 2 13 3.8 13 6L13 10L9 10C6.8 10 5 8.2 5 6ZM2 12L9 12L13 12L15 12L19 12L26 12L26 18L2 18L2 12Z" id="Mask" fill="#00B956" stroke="none" />
  </g>
</svg>