<svg xmlns="http://www.w3.org/2000/svg" xmlns:xlink="http://www.w3.org/1999/xlink"><defs>
    <path d="M28.2 9C25.7 4.7 21.1 2 16.1 2C8.4 2 2.1 8.3 2.1 16C2.1 23.7 8.4 30 16.1 30C21.1 30 25.7 27.3 28.2 23L29.9 24C27 28.9 21.7 32 16 32C7.2 32 0 24.8 0 16C0 7.2 7.3 0 16.1 0C21.8 0 27.1 3.1 30 8L28.2 9ZM33.1 12L31.1 12L31.1 15L28.1 15L28.1 17L31.1 17L31.1 20L33.1 20L33.1 17L36.1 17L36.1 15L33.1 15L33.1 12ZM14.1 22L14.1 20L15.1 20L15.1 18L14.1 18L14.1 15L12.1 15L12.1 18L8.4 18L10.9 10.3L9 9.7L6.3 18.1L6.1 18.7L7 20L12.1 20L12.1 22L14.1 22ZM24.5 12.8L25.7 11.2C23.4 9.4 19.9 9.7 17.9 11.8C16.7 12.9 16.1 14.4 16.1 16C16.1 17.6 16.7 19.1 17.9 20.3C19 21.4 20.5 22.1 22.1 22.1C23.4 22.1 24.7 21.7 25.7 20.9L26.1 20.6L26.1 15.1L22.1 15.1L22.1 17.1L24.1 17.1L24.1 19.6C22.6 20.5 20.5 20.2 19.3 19C18.5 18.1 18.1 17.1 18.1 16C18.1 14.9 18.5 13.9 19.3 13.2C20.6 11.8 23 11.6 24.5 12.8Z" id="path_1"/>
    <clipPath id="mask_1">
      <use xlink:href="#path_1"/>
    </clipPath>
  
    <path d="M32 9L3.82 9L9.41 14.59L8 16L0 8L8 0L9.41 1.41533L3.82 7L32 7L32 9Z" transform="matrix(-1 0 0 1 32 0)" id="path_1"/>
    <clipPath id="mask_1">
      <use xlink:href="#path_1"/>
    </clipPath>
  
    <path d="M11.3369 8L6.5 3.20605L1.66315 8L0 6.39698L6.5 0L13 6.39698L11.3369 8Z" id="path_1"/>
    <clipPath id="mask_1">
      <use xlink:href="#path_1"/>
    </clipPath>
  
    <path d="M0 17.5C0 7.83502 7.83502 0 17.5 0C27.165 0 35 7.83502 35 17.5C35 27.165 27.165 35 17.5 35C7.83502 35 0 27.165 0 17.5Z" id="path_1"/>
    <clipPath id="mask_1">
      <use xlink:href="#path_1"/>
    </clipPath>
    
  
    <path d="M13 2L13 0C23.477 0 32 8.523 32 19L30 19C30 9.626 22.374 2 13 2M13 14L13 12C16.859 12 20 15.141 20 19L18 19C18 16.243 15.757 14 13 14M13 8L13 6C20.168 6 26 11.832 26 19L24 19C24 12.935 19.065 8 13 8M2 14.3848L3.557 12.8278L7.404 16.8298L5 19.2348L5.33 19.8818C6.865 22.8918 9.108 24.9808 12.118 26.5158L12.766 26.8458L15.17 24.4418L19.172 28.4438L17.615 29.9998L17.476 29.9998C9.059 29.9998 2 23.0118 2 14.5248L2 14.3848ZM17.476 31.9998L18.443 31.9998L22 28.4438L15.17 21.6138L12.394 24.3898C10.247 23.1508 8.695 21.7528 7.456 19.6068L10.232 16.8298L3.557 9.9998L0 13.5568L0 14.5248C0 23.9998 8 31.9998 17.476 31.9998L17.476 31.9998Z" id="path_1"/>
    <clipPath id="mask_1">
      <use xlink:href="#path_1"/>
    </clipPath>
  
    <path d="M26 32L26 20L28 20L28 10L23.4 10C24.4 8.9 25 7.5 25 6C25 2.7 22.3 0 19 0C16.9 0 15.1 1.1 14 2.7C12.9 1.1 11.1 0 9 0C5.7 0 3 2.7 3 6C3 7.5 3.6 8.9 4.6 10L0 10L0 20L2 20L2 32L26 32ZM4 20L13 20L13 30L4 30L4 20ZM24 30L15 30L15 20L24 20L24 30ZM19 2C21.2 2 23 3.8 23 6C23 8.2 21.2 10 19 10L15 10L15 6C15 3.8 16.8 2 19 2ZM5 6C5 3.8 6.8 2 9 2C11.2 2 13 3.8 13 6L13 10L9 10C6.8 10 5 8.2 5 6ZM2 12L9 12L13 12L15 12L19 12L26 12L26 18L2 18L2 12Z" id="path_1"/>
    <clipPath id="mask_1">
      <use xlink:href="#path_1"/>
    </clipPath>
  </defs><symbol id="4g" viewBox="0 0 37 32">
  
  <g id="Group-47-Copy">
    <g id="Group-26">
      <path d="M28.2 9C25.7 4.7 21.1 2 16.1 2C8.4 2 2.1 8.3 2.1 16C2.1 23.7 8.4 30 16.1 30C21.1 30 25.7 27.3 28.2 23L29.9 24C27 28.9 21.7 32 16 32C7.2 32 0 24.8 0 16C0 7.2 7.3 0 16.1 0C21.8 0 27.1 3.1 30 8L28.2 9ZM33.1 12L31.1 12L31.1 15L28.1 15L28.1 17L31.1 17L31.1 20L33.1 20L33.1 17L36.1 17L36.1 15L33.1 15L33.1 12ZM14.1 22L14.1 20L15.1 20L15.1 18L14.1 18L14.1 15L12.1 15L12.1 18L8.4 18L10.9 10.3L9 9.7L6.3 18.1L6.1 18.7L7 20L12.1 20L12.1 22L14.1 22ZM24.5 12.8L25.7 11.2C23.4 9.4 19.9 9.7 17.9 11.8C16.7 12.9 16.1 14.4 16.1 16C16.1 17.6 16.7 19.1 17.9 20.3C19 21.4 20.5 22.1 22.1 22.1C23.4 22.1 24.7 21.7 25.7 20.9L26.1 20.6L26.1 15.1L22.1 15.1L22.1 17.1L24.1 17.1L24.1 19.6C22.6 20.5 20.5 20.2 19.3 19C18.5 18.1 18.1 17.1 18.1 16C18.1 14.9 18.5 13.9 19.3 13.2C20.6 11.8 23 11.6 24.5 12.8Z" id="Mask" fill="#00B956" stroke="none"/>
    </g>
  </g>
</symbol><symbol id="account" viewBox="0 0 22 14">
  <g id="account">
    <path d="M18.2742 3.25521L20.735 5.81853L20.735 9.24479L11.2597 9.24479C10.224 11.2209 8.2271 12.5 6 12.5C2.68647 12.5 0 9.7016 0 6.25C0 2.7984 2.68647 0 6 0C8.2271 0 10.224 1.27909 11.2597 3.25521L18.2742 3.25521ZM17.4458 5.33854L9.95514 5.33854L9.70203 4.68828C9.09376 3.12558 7.64034 2.08333 6 2.08333C3.79103 2.08333 2 3.94899 2 6.25C2 8.55101 3.79103 10.4167 6 10.4167C7.64034 10.4167 9.09376 9.37442 9.70203 7.81172L9.95514 7.16146L18.735 7.16146L18.735 6.68147L17.4458 5.33854ZM4.74963 4.81771C5.50991 4.81771 6.12463 5.45804 6.12463 6.25C6.12463 7.04196 5.50991 7.68229 4.74963 7.68229C3.99018 7.68229 3.37462 7.04153 3.37462 6.25C3.37462 5.45847 3.99018 4.81771 4.74963 4.81771Z" transform="translate(0.625375 0.9010417)" id="Stroke-3" fill="#00B956" fill-rule="evenodd" stroke="none"/>
  </g>
</symbol><symbol id="arrow-right-small" viewBox="0 0 5 9">
  <path d="M4 0L0 4L4 8" transform="translate(0.5 0.5)" id="Path-2" fill="none" fill-rule="evenodd" stroke="#424242" stroke-width="1"/>
</symbol><symbol id="arrow-right" viewBox="0 0 32 16">
  
  <path d="M32 9L3.82 9L9.41 14.59L8 16L0 8L8 0L9.41 1.41533L3.82 7L32 7L32 9Z" transform="matrix(-1 0 0 1 32 0)" id="Mask" fill="currentColor" stroke="none"/>
</symbol><symbol id="arrow-up" viewBox="0 0 13 8">
  
  <path d="M11.3369 8L6.5 3.20605L1.66315 8L0 6.39698L6.5 0L13 6.39698L11.3369 8Z" id="Mask" fill="#333333" stroke="none"/>
</symbol><symbol id="hamburger" viewBox="0 0 24 21">
  <g id="hamburger">
    <path d="M0 0L24 0L24 3L0 3L0 0Z" id="Rectangle-3" fill="#00B956" fill-rule="evenodd" stroke="none"/>
    <path d="M0 0L24 0L24 3L0 3L0 0Z" transform="translate(0 9)" id="Rectangle-3" fill="#00B956" fill-rule="evenodd" stroke="none"/>
    <path d="M0 0L24 0L24 3L0 3L0 0Z" transform="translate(0 18)" id="Rectangle-3" fill="#00B956" fill-rule="evenodd" stroke="none"/>
  </g>
</symbol><symbol id="icon-fb" viewBox="0 0 9 16">
  <path d="M2.3566 3.64202L2.3566 5.66197L0 5.66197L0 8.44705L2.3566 8.44705L2.3566 15.5781L5.2335 15.5781L5.2335 8.44705L7.5901 8.44705L7.92676 5.66197L5.2335 5.66197L5.2335 3.91747C5.2335 3.44819 5.32531 3.09623 5.50894 2.86159C5.69258 2.62695 6.05984 2.50963 6.61073 2.50963L8.11039 2.50963L8.11039 0.0918157C8.08999 0.0918157 7.82474 0.0765133 7.31465 0.0459079C6.80456 0.0153025 6.34549 0 5.93742 0C4.85603 0 3.98889 0.31115 3.33597 0.93346C2.68306 1.55577 2.3566 2.45862 2.3566 3.64202Z" id="&#xE064;" fill="currentColor" fill-rule="evenodd" stroke="none"/>
</symbol><symbol id="icon-h" viewBox="0 0 12 14">
  <path d="M7.81964 0L7.81964 4.90066L3.90982 4.90066L3.90982 0L0 0L0 13.7112L3.90982 13.7112L3.90982 8.81048L7.81964 8.81048L7.81964 13.7112L11.7295 13.7112L11.7295 0L7.81964 0Z" id="&#xE065;" fill="currentColor" fill-rule="evenodd" stroke="none"/>
</symbol><symbol id="icon-infinite" viewBox="0 0 48 48">
  <g id="Icons32Gag-Copy-2" opacity="0.8">
    <path d="M32.25 16.5C26.949 16.5 23.688 11.5305 22.6905 9.75C23.688 7.9695 26.949 3 32.25 3C35.9715 3 39 6.0285 39 9.75C39 13.4715 35.9715 16.5 32.25 16.5M9.75 16.5C6.0285 16.5 3 13.4715 3 9.75C3 6.0285 6.0285 3 9.75 3C15.051 3 18.312 7.9695 19.3095 9.75C18.312 11.5305 15.051 16.5 9.75 16.5M32.25 0C26.544 0 22.8375 4.068 21 6.777C19.1625 4.068 15.456 0 9.75 0C4.374 0 0 4.374 0 9.75C0 15.126 4.374 19.5 9.75 19.5C15.456 19.5 19.1625 15.432 21 12.723C22.8375 15.432 26.544 19.5 32.25 19.5C37.626 19.5 42 15.126 42 9.75C42 4.374 37.626 0 32.25 0" transform="translate(3 15)" id="Page-1-Copy-10" fill="#000000" fill-rule="evenodd" stroke="none"/>
  </g>
</symbol><symbol id="icon-inst" viewBox="0 0 35 35">
  
  <g id="Instagram-Copy-3">
    <path d="M0 17.5C0 7.83502 7.83502 0 17.5 0C27.165 0 35 7.83502 35 17.5C35 27.165 27.165 35 17.5 35C7.83502 35 0 27.165 0 17.5Z" id="back" fill="transparent" fill-rule="evenodd" stroke="none"/>
    <g clip-path="url(#mask_1)">
      <use xlink:href="#img_1" fill="#FFFFFF" stroke="none" transform="scale(0.07 0.07)"/>
      <path d="M9.33421 0C6.7994 0 6.48129 0.0110834 5.48572 0.0563895C4.4921 0.10189 3.81387 0.259197 3.22042 0.490005C2.60655 0.728396 2.08583 1.04729 1.56704 1.56627C1.04787 2.08505 0.72898 2.60578 0.489811 3.21945C0.258419 3.8131 0.100918 4.49152 0.056195 5.48475C0.0116668 6.48032 0 6.79863 0 9.33343C0 11.8682 0.0112779 12.1854 0.0563895 13.1809C0.102084 14.1746 0.259392 14.8528 0.490005 15.4462C0.728591 16.0601 1.04748 16.5808 1.56646 17.0996C2.08505 17.6188 2.60578 17.9385 3.21926 18.1769C3.8131 18.4077 4.49152 18.565 5.48495 18.6105C6.48051 18.6558 6.79843 18.6669 9.33304 18.6669C11.868 18.6669 12.1852 18.6558 13.1807 18.6105C14.1744 18.565 14.8534 18.4077 15.4472 18.1769C16.0609 17.9385 16.5808 17.6188 17.0994 17.0996C17.6186 16.5808 17.9375 16.0601 18.1767 15.4464C18.4061 14.8528 18.5636 14.1744 18.6103 13.1811C18.655 12.1856 18.6667 11.8682 18.6667 9.33343C18.6667 6.79863 18.655 6.48051 18.6103 5.48495C18.5636 4.49132 18.4061 3.8131 18.1767 3.21964C17.9375 2.60578 17.6186 2.08505 17.0994 1.56627C16.5803 1.04709 16.0611 0.728202 15.4466 0.490005C14.8516 0.259197 14.173 0.10189 13.1794 0.0563895C12.1838 0.0110834 11.8669 2.76325e-15 9.33129 2.76325e-15L9.33421 0ZM8.49692 1.68196C8.74542 1.68157 9.02271 1.68196 9.33421 1.68196C11.8262 1.68196 12.1216 1.69091 13.1057 1.73563C14.0157 1.77724 14.5096 1.9293 14.8386 2.05705C15.2742 2.22622 15.5847 2.42844 15.9112 2.75511C16.2378 3.08178 16.4401 3.3929 16.6096 3.82846C16.7374 4.15707 16.8896 4.65097 16.931 5.56097C16.9758 6.54487 16.9855 6.84043 16.9855 9.33129C16.9855 11.8222 16.9758 12.1177 16.931 13.1016C16.8894 14.0116 16.7374 14.5055 16.6096 14.8341C16.4404 15.2697 16.2378 15.5798 15.9112 15.9063C15.5845 16.233 15.2744 16.4352 14.8386 16.6044C14.51 16.7327 14.0157 16.8844 13.1057 16.926C12.1218 16.9707 11.8262 16.9804 9.33421 16.9804C6.84199 16.9804 6.54662 16.9707 5.56272 16.926C4.65272 16.884 4.15882 16.7319 3.82962 16.6042C3.39406 16.435 3.08295 16.2328 2.75628 15.9061C2.42961 15.5794 2.22738 15.2691 2.05783 14.8333C1.93008 14.5047 1.77782 14.0108 1.73641 13.1008C1.69168 12.1169 1.68274 11.8214 1.68274 9.32896C1.68274 6.83654 1.69168 6.54254 1.73641 5.55864C1.77802 4.64863 1.93008 4.15474 2.05783 3.82573C2.227 3.39017 2.42961 3.07906 2.75628 2.75239C3.08295 2.42572 3.39406 2.2235 3.82962 2.05394C4.15863 1.9256 4.65272 1.77394 5.56272 1.73213C6.42373 1.69324 6.7574 1.68157 8.49692 1.67963L8.49692 1.68196ZM14.3163 3.2317C13.698 3.2317 13.1963 3.73279 13.1963 4.35132C13.1963 4.96966 13.698 5.47133 14.3163 5.47133C14.9347 5.47133 15.4363 4.96966 15.4363 4.35132C15.4363 3.73298 14.9347 3.23131 14.3163 3.23131L14.3163 3.2317ZM9.33421 4.54033C6.68721 4.54033 4.5411 6.68643 4.5411 9.33343C4.5411 11.9804 6.68721 14.1256 9.33421 14.1256C11.9812 14.1256 14.1265 11.9804 14.1265 9.33343C14.1265 6.68643 11.981 4.54033 9.33401 4.54033L9.33421 4.54033ZM9.33421 6.22229C11.0523 6.22229 12.4454 7.61511 12.4454 9.33343C12.4454 11.0516 11.0523 12.4446 9.33421 12.4446C7.61588 12.4446 6.22306 11.0516 6.22306 9.33343C6.22306 7.61511 7.61588 6.22229 9.33421 6.22229L9.33421 6.22229Z" transform="translate(8.166667 8.166667)" id="Shape" fill="#FFFFFF" fill-rule="evenodd" stroke="none"/>
    </g>
  </g>
</symbol><symbol id="icon-pin" viewBox="12.08 8.75 18.07 24.5">
  <g id="Group" transform="translate(1 1)">
    <path d="M15.4005 11.25C15.4005 11.25 16.071 9.9105 16.071 8.0355C16.071 3.597 12.474 0 8.0355 0C3.597 0 0 3.597 0 8.0355C0 10.071 0.6705 11.25 0.6705 11.25L6.429 22.5L9.642 22.5L15.4005 11.25Z" transform="translate(12.083783 8.75)" id="Stroke-1" fill="none" fill-rule="evenodd" stroke="#333333" stroke-width="2"/>
    <path d="M6 3C6 4.656 4.656 6 3 6C1.344 6 0 4.656 0 3C0 1.344 1.344 0 3 0C4.656 0 6 1.344 6 3Z" transform="translate(17.118984 14)" id="Stroke-3" fill="none" fill-rule="evenodd" stroke="#333333" stroke-width="2"/>
    <path d="M0 0L40 0L40 40L0 40L0 0Z" id="Rectangle-6" fill="none" fill-rule="evenodd" stroke="none"/>
  </g>
</symbol><symbol id="icon-question" viewBox="0 0 30 24">
  <g id="Group" transform="translate(1 1)">
    <path d="M0 9.0006L6.0704 7.3836C7.399 3.1066 11.3862 0 16.1 0C21.9002 0 26.6 4.7012 26.6 10.5C26.6 16.3002 21.9002 21 16.1 21C11.3862 21 7.399 17.8948 6.0704 13.6178L0 12.0008L0 9.0006Z" transform="translate(0.7 0.69958)" id="Stroke-1" fill="none" fill-rule="evenodd" stroke="#333333" stroke-width="2"/>
    <path d="M2.8 1.4C2.8 2.1742 2.1742 2.8 1.4 2.8C0.6258 2.8 0 2.1742 0 1.4C0 0.6258 0.6258 0 1.4 0C2.1742 0 2.8 0.6258 2.8 1.4" transform="translate(11.2 9.8)" id="Fill-3" fill="#333333" fill-rule="evenodd" stroke="none"/>
    <path d="M2.8 1.4C2.8 2.1742 2.1742 2.8 1.4 2.8C0.6258 2.8 0 2.1742 0 1.4C0 0.6258 0.6258 0 1.4 0C2.1742 0 2.8 0.6258 2.8 1.4" transform="translate(15.4 9.8)" id="Fill-5" fill="#333333" fill-rule="evenodd" stroke="none"/>
    <path d="M2.8 1.4C2.8 2.1742 2.1742 2.8 1.4 2.8C0.6258 2.8 0 2.1742 0 1.4C0 0.6258 0.6258 0 1.4 0C2.1742 0 2.8 0.6258 2.8 1.4" transform="translate(19.6 9.8)" id="Fill-7" fill="#333333" fill-rule="evenodd" stroke="none"/>
  </g>
</symbol><symbol id="icon-tg" viewBox="0 0 19 17">
  <path d="M7.05183 9.96345L7.0516 9.96328L7.05186 9.96304L7.05187 9.96286L7.05198 9.96293L14.7271 3.03669C15.064 2.73772 14.6536 2.59193 14.2064 2.8631L4.73373 8.8393L0.642054 7.56222C-0.241567 7.29167 -0.247913 6.68447 0.840438 6.24794L16.7848 0.0998741C17.513 -0.230737 18.2159 0.27478 17.9379 1.38935L15.2225 14.185C15.0329 15.0942 14.4835 15.3117 13.7223 14.8917L9.58602 11.8357L7.59783 13.769C7.36686 13.9936 7.18402 14.1828 6.7702 14.1828L7.05183 9.96345Z" transform="translate(0.5 0.5)" id="Combined-Shape" fill="currentColor" fill-rule="evenodd" stroke="none"/>
</symbol><symbol id="icon-vim" viewBox="0 0 35 35">
  <g id="Vimeo-Copy-3">
    <path d="M0 17.5C0 7.83502 7.83502 0 17.5 0C27.165 0 35 7.83502 35 17.5C35 27.165 27.165 35 17.5 35C7.83502 35 0 27.165 0 17.5Z" id="back" fill="#31AFD8" fill-rule="evenodd" stroke="none"/>
    <path d="M20.9898 4.20146C20.8963 6.24557 19.4688 9.04401 16.7069 12.5968C13.8518 16.3065 11.4359 18.1622 9.46061 18.1622C8.23599 18.1622 7.20026 17.033 6.35389 14.7729C5.78893 12.7012 5.22444 10.6297 4.65923 8.55799C4.03057 6.29909 3.35687 5.16842 2.63571 5.16842C2.47855 5.16842 1.92883 5.49898 0.987544 6.15718L0 4.88485C1.03646 3.97456 2.05863 3.06402 3.06434 2.15227C4.44661 0.958406 5.48501 0.329991 6.17663 0.266786C7.81027 0.109621 8.81622 1.22648 9.19375 3.61736C9.60179 6.19738 9.8844 7.80171 10.0428 8.42964C10.5145 10.5701 11.033 11.6393 11.5989 11.6393C12.038 11.6393 12.6986 10.9452 13.5791 9.55619C14.4579 8.16811 14.9292 7.11179 14.9926 6.38578C15.1183 5.1878 14.647 4.58723 13.5791 4.58723C13.0764 4.58723 12.5579 4.70298 12.0246 4.93159C13.057 1.55171 15.0287 -0.0899215 17.939 0.00379585C20.0967 0.0670006 21.1145 1.46622 20.9898 4.20146" transform="translate(6.4166665 9.916667)" id="Fill-4" fill="#FFFFFE" fill-rule="evenodd" stroke="none"/>
  </g>
</symbol><symbol id="icon-vip" viewBox="11.42 8.75 18.5 24.65">
  <g id="Group" transform="translate(1 1)">
    <path d="M0 0L0 4.0485C0 8.6055 3.6945 12.2985 8.25 12.2985C12.8055 12.2985 16.5 8.6055 16.5 4.0485L16.5 0" transform="translate(11.416667 19.1006)" id="Stroke-1" fill="none" fill-rule="evenodd" stroke="#333333" stroke-width="2"/>
    <path d="M0 3L0 10.5L16.5 10.5L16.5 3L14.25 3L12.75 6L11.25 6L9.1065 0L7.2855 0L5.25 6L3.75 6L2.25 3L0 3Z" transform="translate(11.416667 8.75)" id="Stroke-3" fill="none" fill-rule="evenodd" stroke="#333333" stroke-width="2"/>
    <path d="M0 0L40 0L40 40L0 40L0 0Z" id="Rectangle-6" fill="none" fill-rule="evenodd" stroke="none"/>
  </g>
</symbol><symbol id="icon-vk" viewBox="0 0 18 11">
  <path d="M9.88275 10.0379C9.88275 10.0379 10.2076 10.0024 10.374 9.82701C10.5263 9.66627 10.521 9.36295 10.521 9.36295C10.521 9.36295 10.5008 7.94656 11.1707 7.73743C11.831 7.53175 12.6788 9.10715 13.5786 9.71294C14.2582 10.171 14.7741 10.0707 14.7741 10.0707L17.1785 10.0379C17.1785 10.0379 18.4356 9.96182 17.8396 8.99135C17.7903 8.91184 17.4919 8.27322 16.0525 6.96139C14.5444 5.58821 14.7469 5.81031 16.5622 3.43468C17.668 1.98804 18.1099 1.10485 17.9717 0.727208C17.8405 0.365981 17.027 0.461905 17.027 0.461905L14.3207 0.478325C14.3207 0.478325 14.12 0.451535 13.9712 0.538817C13.826 0.624371 13.7318 0.823996 13.7318 0.823996C13.7318 0.823996 13.3039 1.94311 12.7325 2.89543C11.5273 4.90378 11.0457 5.01008 10.8485 4.88564C10.3898 4.59441 10.5043 3.71727 10.5043 3.09419C10.5043 1.1472 10.8054 0.335735 9.91884 0.12574C9.6248 0.0557413 9.40822 0.00993981 8.6555 0.0021622C7.68972 -0.00734376 6.87273 0.00561892 6.40965 0.227713C6.10151 0.375487 5.86381 0.705604 6.00907 0.724616C6.18779 0.747948 6.59276 0.831774 6.80758 1.11868C7.0849 1.48941 7.07521 2.32075 7.07521 2.32075C7.07521 2.32075 7.23456 4.61256 6.70281 4.89687C6.33833 5.09217 5.83828 4.69379 4.76333 2.87124C4.2131 1.93792 3.79756 0.906093 3.79756 0.906093C3.79756 0.906093 3.71744 0.713381 3.57394 0.60968C3.4005 0.484374 3.1584 0.445486 3.1584 0.445486L0.586807 0.461905C0.586807 0.461905 0.20032 0.472275 0.0585791 0.637334C-0.0673154 0.78338 0.0488949 1.08671 0.0488949 1.08671C0.0488949 1.08671 2.06233 5.71093 4.34251 8.04162C6.43342 10.1779 8.80692 10.0379 8.80692 10.0379L9.88275 10.0379Z" id="Shape" fill="currentColor" fill-rule="evenodd" stroke="none"/>
</symbol><symbol id="icon-youtube" viewBox="0 0 36 35">
  <g id="Youtube-Copy-3">
    <path d="M0 17.5C0 7.83502 7.93822 0 17.7305 0C27.5228 0 35.461 7.83502 35.461 17.5C35.461 27.165 27.5228 35 17.7305 35C7.93822 35 0 27.165 0 17.5Z" id="back" fill="#CE1312" fill-rule="evenodd" stroke="none"/>
    <path d="M18.6964 2.89412C18.6964 2.89412 18.5117 1.57969 17.9457 1.00087C17.2275 0.240829 16.4225 0.237252 16.0536 0.19314C13.4109 0 9.44675 0 9.44675 0L9.43849 0C9.43849 0 5.47436 0 2.83161 0.19314C2.46216 0.237252 1.65777 0.240829 0.938951 1.00087C0.372984 1.57969 0.188852 2.89412 0.188852 2.89412C0.188852 2.89412 0 4.43805 0 5.98138L0 7.42873C0 8.97266 0.188852 10.516 0.188852 10.516C0.188852 10.516 0.372984 11.8304 0.938951 12.4092C1.65777 13.1693 2.60144 13.1454 3.02164 13.2247C4.53246 13.3714 9.44262 13.4167 9.44262 13.4167C9.44262 13.4167 13.4109 13.4107 16.0536 13.2176C16.4225 13.1729 17.2275 13.1693 17.9457 12.4092C18.5117 11.8304 18.6964 10.516 18.6964 10.516C18.6964 10.516 18.8852 8.97266 18.8852 7.42873L18.8852 5.98138C18.8852 4.43805 18.6964 2.89412 18.6964 2.89412L18.6964 2.89412Z" transform="translate(8.262295 11.083333)" id="Youtube" fill="#FFFFFF" fill-rule="evenodd" stroke="none"/>
    <path d="M0.000590164 5.35963L0 0L5.10256 2.68906L0.000590164 5.35963Z" transform="translate(15.754426 14.906192)" id="Path" fill="#CE1312" fill-rule="evenodd" stroke="none"/>
  </g>
</symbol><symbol id="icon-zone" viewBox="0 0 25 25">
  <g id="Group" transform="translate(1 1)">
    <path d="M10.386 22.4355L0 19.467L0 0.087C0.048 0.051 0.0675 0.036 0.114 0L10.5 2.967L10.5 22.3485C10.452 22.3845 10.4325 22.3995 10.386 22.4355Z" transform="translate(6.0830336 0.15818334)" id="Stroke-1" fill="none" fill-rule="evenodd" stroke="#333333" stroke-width="2"/>
    <path d="M0.1305 22.3275L6 19.392L6 0.135C5.9055 0.0765 5.8785 0.0585 5.784 0L0 2.892L0 22.2465C0.057 22.2825 0.0735 22.293 0.1305 22.3275Z" transform="translate(16.583183 0.23408334)" id="Stroke-3" fill="none" fill-rule="evenodd" stroke="#333333" stroke-width="2"/>
    <path d="M0.2175 22.3275L6 19.4355L6 0.081C5.943 0.0465 5.928 0.036 5.871 0L0 2.9355L0 22.1925C0.096 22.251 0.123 22.269 0.2175 22.3275Z" transform="translate(0.08258333 0.19013333)" id="Stroke-5" fill="none" fill-rule="evenodd" stroke="#333333" stroke-width="2"/>
  </g>
</symbol><symbol id="phone" viewBox="0 0 32 32">
  
  <g id="Group-52-Copy">
    <path d="M13 2L13 0C23.477 0 32 8.523 32 19L30 19C30 9.626 22.374 2 13 2M13 14L13 12C16.859 12 20 15.141 20 19L18 19C18 16.243 15.757 14 13 14M13 8L13 6C20.168 6 26 11.832 26 19L24 19C24 12.935 19.065 8 13 8M2 14.3848L3.557 12.8278L7.404 16.8298L5 19.2348L5.33 19.8818C6.865 22.8918 9.108 24.9808 12.118 26.5158L12.766 26.8458L15.17 24.4418L19.172 28.4438L17.615 29.9998L17.476 29.9998C9.059 29.9998 2 23.0118 2 14.5248L2 14.3848ZM17.476 31.9998L18.443 31.9998L22 28.4438L15.17 21.6138L12.394 24.3898C10.247 23.1508 8.695 21.7528 7.456 19.6068L10.232 16.8298L3.557 9.9998L0 13.5568L0 14.5248C0 23.9998 8 31.9998 17.476 31.9998L17.476 31.9998Z" id="Mask" fill="#00B956" fill-rule="evenodd" stroke="none"/>
  </g>
</symbol><symbol id="present" viewBox="0 0 28 32">
  
  <g id="Group-53-Copy-2">
    <path d="M26 32L26 20L28 20L28 10L23.4 10C24.4 8.9 25 7.5 25 6C25 2.7 22.3 0 19 0C16.9 0 15.1 1.1 14 2.7C12.9 1.1 11.1 0 9 0C5.7 0 3 2.7 3 6C3 7.5 3.6 8.9 4.6 10L0 10L0 20L2 20L2 32L26 32ZM4 20L13 20L13 30L4 30L4 20ZM24 30L15 30L15 20L24 20L24 30ZM19 2C21.2 2 23 3.8 23 6C23 8.2 21.2 10 19 10L15 10L15 6C15 3.8 16.8 2 19 2ZM5 6C5 3.8 6.8 2 9 2C11.2 2 13 3.8 13 6L13 10L9 10C6.8 10 5 8.2 5 6ZM2 12L9 12L13 12L15 12L19 12L26 12L26 18L2 18L2 12Z" id="Mask" fill="#00B956" stroke="none"/>
  </g>
</symbol><symbol id="search" viewBox="0 0 19 22">
  <g id="search">
    <path d="M16.25 9.125C16.25 5.18979 13.0602 2 9.125 2C5.18979 2 2 5.18979 2 9.125C2 13.0602 5.18979 16.25 9.125 16.25C13.0602 16.25 16.25 13.0602 16.25 9.125ZM18.25 9.125C18.25 14.1648 14.1648 18.25 9.125 18.25C4.08522 18.25 0 14.1648 0 9.125C0 4.08522 4.08522 0 9.125 0C14.1648 0 18.25 4.08522 18.25 9.125Z" transform="translate(0.625 0.624875)" id="Stroke-1" fill="#00B956" stroke="none"/>
    <path d="M4.876 4.0575L1.546 0L0 1.26881L3.33 5.32631L4.876 4.0575Z" transform="translate(13.757374 15.682971)" id="Stroke-3" fill="#00B956" stroke="none"/>
  </g>
</symbol><symbol id="voice" viewBox="0 0 34 32">
  <g id="Group-2" transform="translate(1 1)">
    <path d="M16.62 0C8.336 0 1.62 6.716 1.62 15C1.62 17.16 2.085 19.208 2.907 21.064L0 27.076L2.352 29.88L9.104 27.968C11.316 29.252 13.878 30 16.62 30C24.904 30 31.62 23.284 31.62 15C31.62 6.716 24.904 0 16.62 0Z" transform="translate(0.1825 -0.0001)" id="Stroke-1" fill="none" fill-rule="evenodd" stroke="#00B956" stroke-width="2"/>
    <path d="M0 8L0 0" transform="translate(8.8025 10.9999)" id="Stroke-3" fill="none" fill-rule="evenodd" stroke="#00B956" stroke-width="2"/>
    <path d="M0 0L0 12" transform="translate(16.8025 8.9999)" id="Stroke-5" fill="none" fill-rule="evenodd" stroke="#00B956" stroke-width="2"/>
    <path d="M0 0L0 4" transform="translate(12.8025 12.9999)" id="Stroke-7" fill="none" fill-rule="evenodd" stroke="#00B956" stroke-width="2"/>
    <path d="M0 2L0 0" transform="translate(20.8025 13.9999)" id="Stroke-9" fill="none" fill-rule="evenodd" stroke="#00B956" stroke-width="2"/>
    <path d="M0 8L0 0" transform="translate(24.8025 10.9999)" id="Stroke-11" fill="none" fill-rule="evenodd" stroke="#00B956" stroke-width="2"/>
  </g>
</symbol></svg>