<svg xmlns="http://www.w3.org/2000/svg" xmlns:xlink="http://www.w3.org/1999/xlink"><defs>
    <path d="M28.2 9C25.7 4.7 21.1 2 16.1 2C8.4 2 2.1 8.3 2.1 16C2.1 23.7 8.4 30 16.1 30C21.1 30 25.7 27.3 28.2 23L29.9 24C27 28.9 21.7 32 16 32C7.2 32 0 24.8 0 16C0 7.2 7.3 0 16.1 0C21.8 0 27.1 3.1 30 8L28.2 9ZM33.1 12L31.1 12L31.1 15L28.1 15L28.1 17L31.1 17L31.1 20L33.1 20L33.1 17L36.1 17L36.1 15L33.1 15L33.1 12ZM14.1 22L14.1 20L15.1 20L15.1 18L14.1 18L14.1 15L12.1 15L12.1 18L8.4 18L10.9 10.3L9 9.7L6.3 18.1L6.1 18.7L7 20L12.1 20L12.1 22L14.1 22ZM24.5 12.8L25.7 11.2C23.4 9.4 19.9 9.7 17.9 11.8C16.7 12.9 16.1 14.4 16.1 16C16.1 17.6 16.7 19.1 17.9 20.3C19 21.4 20.5 22.1 22.1 22.1C23.4 22.1 24.7 21.7 25.7 20.9L26.1 20.6L26.1 15.1L22.1 15.1L22.1 17.1L24.1 17.1L24.1 19.6C22.6 20.5 20.5 20.2 19.3 19C18.5 18.1 18.1 17.1 18.1 16C18.1 14.9 18.5 13.9 19.3 13.2C20.6 11.8 23 11.6 24.5 12.8Z" id="path_1"/>
    <clipPath id="mask_1">
      <use xlink:href="#path_1"/>
    </clipPath>
  
    <path d="M13 2L13 0C23.477 0 32 8.523 32 19L30 19C30 9.626 22.374 2 13 2M13 14L13 12C16.859 12 20 15.141 20 19L18 19C18 16.243 15.757 14 13 14M13 8L13 6C20.168 6 26 11.832 26 19L24 19C24 12.935 19.065 8 13 8M2 14.3848L3.557 12.8278L7.404 16.8298L5 19.2348L5.33 19.8818C6.865 22.8918 9.108 24.9808 12.118 26.5158L12.766 26.8458L15.17 24.4418L19.172 28.4438L17.615 29.9998L17.476 29.9998C9.059 29.9998 2 23.0118 2 14.5248L2 14.3848ZM17.476 31.9998L18.443 31.9998L22 28.4438L15.17 21.6138L12.394 24.3898C10.247 23.1508 8.695 21.7528 7.456 19.6068L10.232 16.8298L3.557 9.9998L0 13.5568L0 14.5248C0 23.9998 8 31.9998 17.476 31.9998L17.476 31.9998Z" id="path_1"/>
    <clipPath id="mask_1">
      <use xlink:href="#path_1"/>
    </clipPath>
  
    <path d="M26 32L26 20L28 20L28 10L23.4 10C24.4 8.9 25 7.5 25 6C25 2.7 22.3 0 19 0C16.9 0 15.1 1.1 14 2.7C12.9 1.1 11.1 0 9 0C5.7 0 3 2.7 3 6C3 7.5 3.6 8.9 4.6 10L0 10L0 20L2 20L2 32L26 32ZM4 20L13 20L13 30L4 30L4 20ZM24 30L15 30L15 20L24 20L24 30ZM19 2C21.2 2 23 3.8 23 6C23 8.2 21.2 10 19 10L15 10L15 6C15 3.8 16.8 2 19 2ZM5 6C5 3.8 6.8 2 9 2C11.2 2 13 3.8 13 6L13 10L9 10C6.8 10 5 8.2 5 6ZM2 12L9 12L13 12L15 12L19 12L26 12L26 18L2 18L2 12Z" id="path_1"/>
    <clipPath id="mask_1">
      <use xlink:href="#path_1"/>
    </clipPath>
  </defs><symbol id="4g" viewBox="0 0 37 32">
  
  <g id="Group-47-Copy">
    <g id="Group-26">
      <path d="M28.2 9C25.7 4.7 21.1 2 16.1 2C8.4 2 2.1 8.3 2.1 16C2.1 23.7 8.4 30 16.1 30C21.1 30 25.7 27.3 28.2 23L29.9 24C27 28.9 21.7 32 16 32C7.2 32 0 24.8 0 16C0 7.2 7.3 0 16.1 0C21.8 0 27.1 3.1 30 8L28.2 9ZM33.1 12L31.1 12L31.1 15L28.1 15L28.1 17L31.1 17L31.1 20L33.1 20L33.1 17L36.1 17L36.1 15L33.1 15L33.1 12ZM14.1 22L14.1 20L15.1 20L15.1 18L14.1 18L14.1 15L12.1 15L12.1 18L8.4 18L10.9 10.3L9 9.7L6.3 18.1L6.1 18.7L7 20L12.1 20L12.1 22L14.1 22ZM24.5 12.8L25.7 11.2C23.4 9.4 19.9 9.7 17.9 11.8C16.7 12.9 16.1 14.4 16.1 16C16.1 17.6 16.7 19.1 17.9 20.3C19 21.4 20.5 22.1 22.1 22.1C23.4 22.1 24.7 21.7 25.7 20.9L26.1 20.6L26.1 15.1L22.1 15.1L22.1 17.1L24.1 17.1L24.1 19.6C22.6 20.5 20.5 20.2 19.3 19C18.5 18.1 18.1 17.1 18.1 16C18.1 14.9 18.5 13.9 19.3 13.2C20.6 11.8 23 11.6 24.5 12.8Z" id="Mask" fill="#00B956" stroke="none"/>
    </g>
  </g>
</symbol><symbol id="account" viewBox="0 0 22 14">
  <g id="account">
    <path d="M18.2742 3.25521L20.735 5.81853L20.735 9.24479L11.2597 9.24479C10.224 11.2209 8.2271 12.5 6 12.5C2.68647 12.5 0 9.7016 0 6.25C0 2.7984 2.68647 0 6 0C8.2271 0 10.224 1.27909 11.2597 3.25521L18.2742 3.25521ZM17.4458 5.33854L9.95514 5.33854L9.70203 4.68828C9.09376 3.12558 7.64034 2.08333 6 2.08333C3.79103 2.08333 2 3.94899 2 6.25C2 8.55101 3.79103 10.4167 6 10.4167C7.64034 10.4167 9.09376 9.37442 9.70203 7.81172L9.95514 7.16146L18.735 7.16146L18.735 6.68147L17.4458 5.33854ZM4.74963 4.81771C5.50991 4.81771 6.12463 5.45804 6.12463 6.25C6.12463 7.04196 5.50991 7.68229 4.74963 7.68229C3.99018 7.68229 3.37462 7.04153 3.37462 6.25C3.37462 5.45847 3.99018 4.81771 4.74963 4.81771Z" transform="translate(0.625375 0.9010417)" id="Stroke-3" fill="#00B956" fill-rule="evenodd" stroke="none"/>
  </g>
</symbol><symbol id="hamburger" viewBox="0 0 24 21">
  <g id="hamburger">
    <path d="M0 0L24 0L24 3L0 3L0 0Z" id="Rectangle-3" fill="#00B956" fill-rule="evenodd" stroke="none"/>
    <path d="M0 0L24 0L24 3L0 3L0 0Z" transform="translate(0 9)" id="Rectangle-3" fill="#00B956" fill-rule="evenodd" stroke="none"/>
    <path d="M0 0L24 0L24 3L0 3L0 0Z" transform="translate(0 18)" id="Rectangle-3" fill="#00B956" fill-rule="evenodd" stroke="none"/>
  </g>
</symbol><symbol id="phone" viewBox="0 0 32 32">
  
  <g id="Group-52-Copy">
    <path d="M13 2L13 0C23.477 0 32 8.523 32 19L30 19C30 9.626 22.374 2 13 2M13 14L13 12C16.859 12 20 15.141 20 19L18 19C18 16.243 15.757 14 13 14M13 8L13 6C20.168 6 26 11.832 26 19L24 19C24 12.935 19.065 8 13 8M2 14.3848L3.557 12.8278L7.404 16.8298L5 19.2348L5.33 19.8818C6.865 22.8918 9.108 24.9808 12.118 26.5158L12.766 26.8458L15.17 24.4418L19.172 28.4438L17.615 29.9998L17.476 29.9998C9.059 29.9998 2 23.0118 2 14.5248L2 14.3848ZM17.476 31.9998L18.443 31.9998L22 28.4438L15.17 21.6138L12.394 24.3898C10.247 23.1508 8.695 21.7528 7.456 19.6068L10.232 16.8298L3.557 9.9998L0 13.5568L0 14.5248C0 23.9998 8 31.9998 17.476 31.9998L17.476 31.9998Z" id="Mask" fill="#00B956" fill-rule="evenodd" stroke="none"/>
  </g>
</symbol><symbol id="present" viewBox="0 0 28 32">
  
  <g id="Group-53-Copy-2">
    <path d="M26 32L26 20L28 20L28 10L23.4 10C24.4 8.9 25 7.5 25 6C25 2.7 22.3 0 19 0C16.9 0 15.1 1.1 14 2.7C12.9 1.1 11.1 0 9 0C5.7 0 3 2.7 3 6C3 7.5 3.6 8.9 4.6 10L0 10L0 20L2 20L2 32L26 32ZM4 20L13 20L13 30L4 30L4 20ZM24 30L15 30L15 20L24 20L24 30ZM19 2C21.2 2 23 3.8 23 6C23 8.2 21.2 10 19 10L15 10L15 6C15 3.8 16.8 2 19 2ZM5 6C5 3.8 6.8 2 9 2C11.2 2 13 3.8 13 6L13 10L9 10C6.8 10 5 8.2 5 6ZM2 12L9 12L13 12L15 12L19 12L26 12L26 18L2 18L2 12Z" id="Mask" fill="#00B956" stroke="none"/>
  </g>
</symbol><symbol id="search" viewBox="0 0 19 22">
  <g id="search">
    <path d="M16.25 9.125C16.25 5.18979 13.0602 2 9.125 2C5.18979 2 2 5.18979 2 9.125C2 13.0602 5.18979 16.25 9.125 16.25C13.0602 16.25 16.25 13.0602 16.25 9.125ZM18.25 9.125C18.25 14.1648 14.1648 18.25 9.125 18.25C4.08522 18.25 0 14.1648 0 9.125C0 4.08522 4.08522 0 9.125 0C14.1648 0 18.25 4.08522 18.25 9.125Z" transform="translate(0.625 0.624875)" id="Stroke-1" fill="#00B956" stroke="none"/>
    <path d="M4.876 4.0575L1.546 0L0 1.26881L3.33 5.32631L4.876 4.0575Z" transform="translate(13.757374 15.682971)" id="Stroke-3" fill="#00B956" stroke="none"/>
  </g>
</symbol><symbol id="voice" viewBox="0 0 34 32">
  <g id="Group-2" transform="translate(1 1)">
    <path d="M16.62 0C8.336 0 1.62 6.716 1.62 15C1.62 17.16 2.085 19.208 2.907 21.064L0 27.076L2.352 29.88L9.104 27.968C11.316 29.252 13.878 30 16.62 30C24.904 30 31.62 23.284 31.62 15C31.62 6.716 24.904 0 16.62 0Z" transform="translate(0.1825 -0.0001)" id="Stroke-1" fill="none" fill-rule="evenodd" stroke="#00B956" stroke-width="2"/>
    <path d="M0 8L0 0" transform="translate(8.8025 10.9999)" id="Stroke-3" fill="none" fill-rule="evenodd" stroke="#00B956" stroke-width="2"/>
    <path d="M0 0L0 12" transform="translate(16.8025 8.9999)" id="Stroke-5" fill="none" fill-rule="evenodd" stroke="#00B956" stroke-width="2"/>
    <path d="M0 0L0 4" transform="translate(12.8025 12.9999)" id="Stroke-7" fill="none" fill-rule="evenodd" stroke="#00B956" stroke-width="2"/>
    <path d="M0 2L0 0" transform="translate(20.8025 13.9999)" id="Stroke-9" fill="none" fill-rule="evenodd" stroke="#00B956" stroke-width="2"/>
    <path d="M0 8L0 0" transform="translate(24.8025 10.9999)" id="Stroke-11" fill="none" fill-rule="evenodd" stroke="#00B956" stroke-width="2"/>
  </g>
</symbol></svg>