<svg xmlns="http://www.w3.org/2000/svg" xmlns:xlink="http://www.w3.org/1999/xlink"><defs>
    <path d="M28.2 9C25.7 4.7 21.1 2 16.1 2C8.4 2 2.1 8.3 2.1 16C2.1 23.7 8.4 30 16.1 30C21.1 30 25.7 27.3 28.2 23L29.9 24C27 28.9 21.7 32 16 32C7.2 32 0 24.8 0 16C0 7.2 7.3 0 16.1 0C21.8 0 27.1 3.1 30 8L28.2 9ZM33.1 12L31.1 12L31.1 15L28.1 15L28.1 17L31.1 17L31.1 20L33.1 20L33.1 17L36.1 17L36.1 15L33.1 15L33.1 12ZM14.1 22L14.1 20L15.1 20L15.1 18L14.1 18L14.1 15L12.1 15L12.1 18L8.4 18L10.9 10.3L9 9.7L6.3 18.1L6.1 18.7L7 20L12.1 20L12.1 22L14.1 22ZM24.5 12.8L25.7 11.2C23.4 9.4 19.9 9.7 17.9 11.8C16.7 12.9 16.1 14.4 16.1 16C16.1 17.6 16.7 19.1 17.9 20.3C19 21.4 20.5 22.1 22.1 22.1C23.4 22.1 24.7 21.7 25.7 20.9L26.1 20.6L26.1 15.1L22.1 15.1L22.1 17.1L24.1 17.1L24.1 19.6C22.6 20.5 20.5 20.2 19.3 19C18.5 18.1 18.1 17.1 18.1 16C18.1 14.9 18.5 13.9 19.3 13.2C20.6 11.8 23 11.6 24.5 12.8Z" id="path_1"/>
    <clipPath id="mask_1">
      <use xlink:href="#path_1"/>
    </clipPath>
  
    <path d="M32 9L3.82 9L9.41 14.59L8 16L0 8L8 0L9.41 1.41533L3.82 7L32 7L32 9Z" transform="matrix(-1 0 0 1 32 0)" id="path_1"/>
    <clipPath id="mask_1">
      <use xlink:href="#path_1"/>
    </clipPath>
  
    <path d="M0 17.5C0 7.83502 7.83502 0 17.5 0C27.165 0 35 7.83502 35 17.5C35 27.165 27.165 35 17.5 35C7.83502 35 0 27.165 0 17.5Z" id="path_1"/>
    <clipPath id="mask_1">
      <use xlink:href="#path_1"/>
    </clipPath>
    
  
    <path d="M13 2L13 0C23.477 0 32 8.523 32 19L30 19C30 9.626 22.374 2 13 2M13 14L13 12C16.859 12 20 15.141 20 19L18 19C18 16.243 15.757 14 13 14M13 8L13 6C20.168 6 26 11.832 26 19L24 19C24 12.935 19.065 8 13 8M2 14.3848L3.557 12.8278L7.404 16.8298L5 19.2348L5.33 19.8818C6.865 22.8918 9.108 24.9808 12.118 26.5158L12.766 26.8458L15.17 24.4418L19.172 28.4438L17.615 29.9998L17.476 29.9998C9.059 29.9998 2 23.0118 2 14.5248L2 14.3848ZM17.476 31.9998L18.443 31.9998L22 28.4438L15.17 21.6138L12.394 24.3898C10.247 23.1508 8.695 21.7528 7.456 19.6068L10.232 16.8298L3.557 9.9998L0 13.5568L0 14.5248C0 23.9998 8 31.9998 17.476 31.9998L17.476 31.9998Z" id="path_1"/>
    <clipPath id="mask_1">
      <use xlink:href="#path_1"/>
    </clipPath>
  
    <path d="M26 32L26 20L28 20L28 10L23.4 10C24.4 8.9 25 7.5 25 6C25 2.7 22.3 0 19 0C16.9 0 15.1 1.1 14 2.7C12.9 1.1 11.1 0 9 0C5.7 0 3 2.7 3 6C3 7.5 3.6 8.9 4.6 10L0 10L0 20L2 20L2 32L26 32ZM4 20L13 20L13 30L4 30L4 20ZM24 30L15 30L15 20L24 20L24 30ZM19 2C21.2 2 23 3.8 23 6C23 8.2 21.2 10 19 10L15 10L15 6C15 3.8 16.8 2 19 2ZM5 6C5 3.8 6.8 2 9 2C11.2 2 13 3.8 13 6L13 10L9 10C6.8 10 5 8.2 5 6ZM2 12L9 12L13 12L15 12L19 12L26 12L26 18L2 18L2 12Z" id="path_1"/>
    <clipPath id="mask_1">
      <use xlink:href="#path_1"/>
    </clipPath>
  </defs><symbol id="4g" viewBox="0 0 37 32">
  
  <g id="Group-47-Copy">
    <g id="Group-26">
      <path d="M28.2 9C25.7 4.7 21.1 2 16.1 2C8.4 2 2.1 8.3 2.1 16C2.1 23.7 8.4 30 16.1 30C21.1 30 25.7 27.3 28.2 23L29.9 24C27 28.9 21.7 32 16 32C7.2 32 0 24.8 0 16C0 7.2 7.3 0 16.1 0C21.8 0 27.1 3.1 30 8L28.2 9ZM33.1 12L31.1 12L31.1 15L28.1 15L28.1 17L31.1 17L31.1 20L33.1 20L33.1 17L36.1 17L36.1 15L33.1 15L33.1 12ZM14.1 22L14.1 20L15.1 20L15.1 18L14.1 18L14.1 15L12.1 15L12.1 18L8.4 18L10.9 10.3L9 9.7L6.3 18.1L6.1 18.7L7 20L12.1 20L12.1 22L14.1 22ZM24.5 12.8L25.7 11.2C23.4 9.4 19.9 9.7 17.9 11.8C16.7 12.9 16.1 14.4 16.1 16C16.1 17.6 16.7 19.1 17.9 20.3C19 21.4 20.5 22.1 22.1 22.1C23.4 22.1 24.7 21.7 25.7 20.9L26.1 20.6L26.1 15.1L22.1 15.1L22.1 17.1L24.1 17.1L24.1 19.6C22.6 20.5 20.5 20.2 19.3 19C18.5 18.1 18.1 17.1 18.1 16C18.1 14.9 18.5 13.9 19.3 13.2C20.6 11.8 23 11.6 24.5 12.8Z" id="Mask" fill="#00B956" stroke="none"/>
    </g>
  </g>
</symbol><symbol id="account" viewBox="0 0 22 14">
  <g id="account">
    <path d="M18.2742 3.25521L20.735 5.81853L20.735 9.24479L11.2597 9.24479C10.224 11.2209 8.2271 12.5 6 12.5C2.68647 12.5 0 9.7016 0 6.25C0 2.7984 2.68647 0 6 0C8.2271 0 10.224 1.27909 11.2597 3.25521L18.2742 3.25521ZM17.4458 5.33854L9.95514 5.33854L9.70203 4.68828C9.09376 3.12558 7.64034 2.08333 6 2.08333C3.79103 2.08333 2 3.94899 2 6.25C2 8.55101 3.79103 10.4167 6 10.4167C7.64034 10.4167 9.09376 9.37442 9.70203 7.81172L9.95514 7.16146L18.735 7.16146L18.735 6.68147L17.4458 5.33854ZM4.74963 4.81771C5.50991 4.81771 6.12463 5.45804 6.12463 6.25C6.12463 7.04196 5.50991 7.68229 4.74963 7.68229C3.99018 7.68229 3.37462 7.04153 3.37462 6.25C3.37462 5.45847 3.99018 4.81771 4.74963 4.81771Z" transform="translate(0.625375 0.9010417)" id="Stroke-3" fill="#00B956" fill-rule="evenodd" stroke="none"/>
  </g>
</symbol><symbol id="arrow-right-small" viewBox="0 0 5 9">
  <path d="M4 0L0 4L4 8" transform="translate(0.5 0.5)" id="Path-2" fill="none" fill-rule="evenodd" stroke="#424242" stroke-width="1"/>
</symbol><symbol id="arrow-right" viewBox="0 0 32 16">
  
  <path d="M32 9L3.82 9L9.41 14.59L8 16L0 8L8 0L9.41 1.41533L3.82 7L32 7L32 9Z" transform="matrix(-1 0 0 1 32 0)" id="Mask" fill="currentColor" stroke="none"/>
</symbol><symbol id="hamburger" viewBox="0 0 24 21">
  <g id="hamburger">
    <path d="M0 0L24 0L24 3L0 3L0 0Z" id="Rectangle-3" fill="#00B956" fill-rule="evenodd" stroke="none"/>
    <path d="M0 0L24 0L24 3L0 3L0 0Z" transform="translate(0 9)" id="Rectangle-3" fill="#00B956" fill-rule="evenodd" stroke="none"/>
    <path d="M0 0L24 0L24 3L0 3L0 0Z" transform="translate(0 18)" id="Rectangle-3" fill="#00B956" fill-rule="evenodd" stroke="none"/>
  </g>
</symbol><symbol id="icon-infinite" viewBox="0 0 48 48">
  <g id="Icons32Gag-Copy-2" opacity="0.8">
    <path d="M32.25 16.5C26.949 16.5 23.688 11.5305 22.6905 9.75C23.688 7.9695 26.949 3 32.25 3C35.9715 3 39 6.0285 39 9.75C39 13.4715 35.9715 16.5 32.25 16.5M9.75 16.5C6.0285 16.5 3 13.4715 3 9.75C3 6.0285 6.0285 3 9.75 3C15.051 3 18.312 7.9695 19.3095 9.75C18.312 11.5305 15.051 16.5 9.75 16.5M32.25 0C26.544 0 22.8375 4.068 21 6.777C19.1625 4.068 15.456 0 9.75 0C4.374 0 0 4.374 0 9.75C0 15.126 4.374 19.5 9.75 19.5C15.456 19.5 19.1625 15.432 21 12.723C22.8375 15.432 26.544 19.5 32.25 19.5C37.626 19.5 42 15.126 42 9.75C42 4.374 37.626 0 32.25 0" transform="translate(3 15)" id="Page-1-Copy-10" fill="#000000" fill-rule="evenodd" stroke="none"/>
  </g>
</symbol><symbol id="icon-inst" viewBox="0 0 35 35">
  
  <g id="Instagram-Copy-3">
    <path d="M0 17.5C0 7.83502 7.83502 0 17.5 0C27.165 0 35 7.83502 35 17.5C35 27.165 27.165 35 17.5 35C7.83502 35 0 27.165 0 17.5Z" id="back" fill="transparent" fill-rule="evenodd" stroke="none"/>
    <g clip-path="url(#mask_1)">
      <use xlink:href="#img_1" fill="#FFFFFF" stroke="none" transform="scale(0.07 0.07)"/>
      <path d="M9.33421 0C6.7994 0 6.48129 0.0110834 5.48572 0.0563895C4.4921 0.10189 3.81387 0.259197 3.22042 0.490005C2.60655 0.728396 2.08583 1.04729 1.56704 1.56627C1.04787 2.08505 0.72898 2.60578 0.489811 3.21945C0.258419 3.8131 0.100918 4.49152 0.056195 5.48475C0.0116668 6.48032 0 6.79863 0 9.33343C0 11.8682 0.0112779 12.1854 0.0563895 13.1809C0.102084 14.1746 0.259392 14.8528 0.490005 15.4462C0.728591 16.0601 1.04748 16.5808 1.56646 17.0996C2.08505 17.6188 2.60578 17.9385 3.21926 18.1769C3.8131 18.4077 4.49152 18.565 5.48495 18.6105C6.48051 18.6558 6.79843 18.6669 9.33304 18.6669C11.868 18.6669 12.1852 18.6558 13.1807 18.6105C14.1744 18.565 14.8534 18.4077 15.4472 18.1769C16.0609 17.9385 16.5808 17.6188 17.0994 17.0996C17.6186 16.5808 17.9375 16.0601 18.1767 15.4464C18.4061 14.8528 18.5636 14.1744 18.6103 13.1811C18.655 12.1856 18.6667 11.8682 18.6667 9.33343C18.6667 6.79863 18.655 6.48051 18.6103 5.48495C18.5636 4.49132 18.4061 3.8131 18.1767 3.21964C17.9375 2.60578 17.6186 2.08505 17.0994 1.56627C16.5803 1.04709 16.0611 0.728202 15.4466 0.490005C14.8516 0.259197 14.173 0.10189 13.1794 0.0563895C12.1838 0.0110834 11.8669 2.76325e-15 9.33129 2.76325e-15L9.33421 0ZM8.49692 1.68196C8.74542 1.68157 9.02271 1.68196 9.33421 1.68196C11.8262 1.68196 12.1216 1.69091 13.1057 1.73563C14.0157 1.77724 14.5096 1.9293 14.8386 2.05705C15.2742 2.22622 15.5847 2.42844 15.9112 2.75511C16.2378 3.08178 16.4401 3.3929 16.6096 3.82846C16.7374 4.15707 16.8896 4.65097 16.931 5.56097C16.9758 6.54487 16.9855 6.84043 16.9855 9.33129C16.9855 11.8222 16.9758 12.1177 16.931 13.1016C16.8894 14.0116 16.7374 14.5055 16.6096 14.8341C16.4404 15.2697 16.2378 15.5798 15.9112 15.9063C15.5845 16.233 15.2744 16.4352 14.8386 16.6044C14.51 16.7327 14.0157 16.8844 13.1057 16.926C12.1218 16.9707 11.8262 16.9804 9.33421 16.9804C6.84199 16.9804 6.54662 16.9707 5.56272 16.926C4.65272 16.884 4.15882 16.7319 3.82962 16.6042C3.39406 16.435 3.08295 16.2328 2.75628 15.9061C2.42961 15.5794 2.22738 15.2691 2.05783 14.8333C1.93008 14.5047 1.77782 14.0108 1.73641 13.1008C1.69168 12.1169 1.68274 11.8214 1.68274 9.32896C1.68274 6.83654 1.69168 6.54254 1.73641 5.55864C1.77802 4.64863 1.93008 4.15474 2.05783 3.82573C2.227 3.39017 2.42961 3.07906 2.75628 2.75239C3.08295 2.42572 3.39406 2.2235 3.82962 2.05394C4.15863 1.9256 4.65272 1.77394 5.56272 1.73213C6.42373 1.69324 6.7574 1.68157 8.49692 1.67963L8.49692 1.68196ZM14.3163 3.2317C13.698 3.2317 13.1963 3.73279 13.1963 4.35132C13.1963 4.96966 13.698 5.47133 14.3163 5.47133C14.9347 5.47133 15.4363 4.96966 15.4363 4.35132C15.4363 3.73298 14.9347 3.23131 14.3163 3.23131L14.3163 3.2317ZM9.33421 4.54033C6.68721 4.54033 4.5411 6.68643 4.5411 9.33343C4.5411 11.9804 6.68721 14.1256 9.33421 14.1256C11.9812 14.1256 14.1265 11.9804 14.1265 9.33343C14.1265 6.68643 11.981 4.54033 9.33401 4.54033L9.33421 4.54033ZM9.33421 6.22229C11.0523 6.22229 12.4454 7.61511 12.4454 9.33343C12.4454 11.0516 11.0523 12.4446 9.33421 12.4446C7.61588 12.4446 6.22306 11.0516 6.22306 9.33343C6.22306 7.61511 7.61588 6.22229 9.33421 6.22229L9.33421 6.22229Z" transform="translate(8.166667 8.166667)" id="Shape" fill="#FFFFFF" fill-rule="evenodd" stroke="none"/>
    </g>
  </g>
</symbol><symbol id="icon-vim" viewBox="0 0 35 35">
  <g id="Vimeo-Copy-3">
    <path d="M0 17.5C0 7.83502 7.83502 0 17.5 0C27.165 0 35 7.83502 35 17.5C35 27.165 27.165 35 17.5 35C7.83502 35 0 27.165 0 17.5Z" id="back" fill="#31AFD8" fill-rule="evenodd" stroke="none"/>
    <path d="M20.9898 4.20146C20.8963 6.24557 19.4688 9.04401 16.7069 12.5968C13.8518 16.3065 11.4359 18.1622 9.46061 18.1622C8.23599 18.1622 7.20026 17.033 6.35389 14.7729C5.78893 12.7012 5.22444 10.6297 4.65923 8.55799C4.03057 6.29909 3.35687 5.16842 2.63571 5.16842C2.47855 5.16842 1.92883 5.49898 0.987544 6.15718L0 4.88485C1.03646 3.97456 2.05863 3.06402 3.06434 2.15227C4.44661 0.958406 5.48501 0.329991 6.17663 0.266786C7.81027 0.109621 8.81622 1.22648 9.19375 3.61736C9.60179 6.19738 9.8844 7.80171 10.0428 8.42964C10.5145 10.5701 11.033 11.6393 11.5989 11.6393C12.038 11.6393 12.6986 10.9452 13.5791 9.55619C14.4579 8.16811 14.9292 7.11179 14.9926 6.38578C15.1183 5.1878 14.647 4.58723 13.5791 4.58723C13.0764 4.58723 12.5579 4.70298 12.0246 4.93159C13.057 1.55171 15.0287 -0.0899215 17.939 0.00379585C20.0967 0.0670006 21.1145 1.46622 20.9898 4.20146" transform="translate(6.4166665 9.916667)" id="Fill-4" fill="#FFFFFE" fill-rule="evenodd" stroke="none"/>
  </g>
</symbol><symbol id="icon-vk" viewBox="0 0 35 35">
  <g id="VK-Copy-2">
    <path d="M0 17.5C0 7.83502 7.83502 0 17.5 0C27.165 0 35 7.83502 35 17.5C35 27.165 27.165 35 17.5 35C7.83502 35 0 27.165 0 17.5Z" id="back" fill="#4C6C91" fill-rule="evenodd" stroke="none"/>
    <path d="M10.2488 10.4096C10.2488 10.4096 10.5857 10.3729 10.7582 10.191C10.9162 10.0243 10.9107 9.70972 10.9107 9.70972C10.9107 9.70972 10.8897 8.24087 11.5845 8.024C12.2692 7.8107 13.1484 9.44445 14.0815 10.0727C14.7863 10.5477 15.3213 10.4437 15.3213 10.4437L17.8147 10.4096C17.8147 10.4096 19.1184 10.3308 18.5004 9.32436C18.4492 9.24191 18.1397 8.57963 16.647 7.21922C15.083 5.79518 15.293 6.0255 17.1756 3.56189C18.3223 2.06168 18.7806 1.14577 18.6373 0.754142C18.5013 0.379536 17.6577 0.479013 17.6577 0.479013L14.8511 0.49604C14.8511 0.49604 14.643 0.468259 14.4887 0.558773C14.338 0.647496 14.2404 0.854514 14.2404 0.854514C14.2404 0.854514 13.7966 2.01507 13.2041 3.00267C11.9542 5.0854 11.4548 5.19564 11.2503 5.06659C10.7747 4.76457 10.8933 3.85494 10.8933 3.20879C10.8933 1.18969 11.2056 0.34817 10.2862 0.130397C9.98127 0.0578058 9.75667 0.010308 8.97607 0.00224229C7.97452 -0.00761575 7.12727 0.00582703 6.64704 0.236147C6.32749 0.389394 6.08099 0.731737 6.23163 0.751453C6.41697 0.77565 6.83694 0.86258 7.05971 1.16011C7.3473 1.54458 7.33726 2.40671 7.33726 2.40671C7.33726 2.40671 7.50251 4.78339 6.95106 5.07824C6.57309 5.28077 6.05451 4.86763 4.93975 2.97758C4.36914 2.0097 3.93821 0.939652 3.93821 0.939652C3.93821 0.939652 3.85512 0.739803 3.70631 0.632261C3.52645 0.502314 3.27538 0.461985 3.27538 0.461985L0.608541 0.479013C0.608541 0.479013 0.20774 0.489767 0.0607487 0.660938C-0.0698085 0.812394 0.0507058 1.12695 0.0507058 1.12695C0.0507058 1.12695 2.13871 5.92244 4.50335 8.33945C6.67169 10.5548 9.1331 10.4096 9.1331 10.4096L10.2488 10.4096Z" transform="translate(8.166667 12.25)" id="Shape" fill="#FFFFFF" fill-rule="evenodd" stroke="none"/>
  </g>
</symbol><symbol id="icon-youtube" viewBox="0 0 36 35">
  <g id="Youtube-Copy-3">
    <path d="M0 17.5C0 7.83502 7.93822 0 17.7305 0C27.5228 0 35.461 7.83502 35.461 17.5C35.461 27.165 27.5228 35 17.7305 35C7.93822 35 0 27.165 0 17.5Z" id="back" fill="#CE1312" fill-rule="evenodd" stroke="none"/>
    <path d="M18.6964 2.89412C18.6964 2.89412 18.5117 1.57969 17.9457 1.00087C17.2275 0.240829 16.4225 0.237252 16.0536 0.19314C13.4109 0 9.44675 0 9.44675 0L9.43849 0C9.43849 0 5.47436 0 2.83161 0.19314C2.46216 0.237252 1.65777 0.240829 0.938951 1.00087C0.372984 1.57969 0.188852 2.89412 0.188852 2.89412C0.188852 2.89412 0 4.43805 0 5.98138L0 7.42873C0 8.97266 0.188852 10.516 0.188852 10.516C0.188852 10.516 0.372984 11.8304 0.938951 12.4092C1.65777 13.1693 2.60144 13.1454 3.02164 13.2247C4.53246 13.3714 9.44262 13.4167 9.44262 13.4167C9.44262 13.4167 13.4109 13.4107 16.0536 13.2176C16.4225 13.1729 17.2275 13.1693 17.9457 12.4092C18.5117 11.8304 18.6964 10.516 18.6964 10.516C18.6964 10.516 18.8852 8.97266 18.8852 7.42873L18.8852 5.98138C18.8852 4.43805 18.6964 2.89412 18.6964 2.89412L18.6964 2.89412Z" transform="translate(8.262295 11.083333)" id="Youtube" fill="#FFFFFF" fill-rule="evenodd" stroke="none"/>
    <path d="M0.000590164 5.35963L0 0L5.10256 2.68906L0.000590164 5.35963Z" transform="translate(15.754426 14.906192)" id="Path" fill="#CE1312" fill-rule="evenodd" stroke="none"/>
  </g>
</symbol><symbol id="phone" viewBox="0 0 32 32">
  
  <g id="Group-52-Copy">
    <path d="M13 2L13 0C23.477 0 32 8.523 32 19L30 19C30 9.626 22.374 2 13 2M13 14L13 12C16.859 12 20 15.141 20 19L18 19C18 16.243 15.757 14 13 14M13 8L13 6C20.168 6 26 11.832 26 19L24 19C24 12.935 19.065 8 13 8M2 14.3848L3.557 12.8278L7.404 16.8298L5 19.2348L5.33 19.8818C6.865 22.8918 9.108 24.9808 12.118 26.5158L12.766 26.8458L15.17 24.4418L19.172 28.4438L17.615 29.9998L17.476 29.9998C9.059 29.9998 2 23.0118 2 14.5248L2 14.3848ZM17.476 31.9998L18.443 31.9998L22 28.4438L15.17 21.6138L12.394 24.3898C10.247 23.1508 8.695 21.7528 7.456 19.6068L10.232 16.8298L3.557 9.9998L0 13.5568L0 14.5248C0 23.9998 8 31.9998 17.476 31.9998L17.476 31.9998Z" id="Mask" fill="#00B956" fill-rule="evenodd" stroke="none"/>
  </g>
</symbol><symbol id="present" viewBox="0 0 28 32">
  
  <g id="Group-53-Copy-2">
    <path d="M26 32L26 20L28 20L28 10L23.4 10C24.4 8.9 25 7.5 25 6C25 2.7 22.3 0 19 0C16.9 0 15.1 1.1 14 2.7C12.9 1.1 11.1 0 9 0C5.7 0 3 2.7 3 6C3 7.5 3.6 8.9 4.6 10L0 10L0 20L2 20L2 32L26 32ZM4 20L13 20L13 30L4 30L4 20ZM24 30L15 30L15 20L24 20L24 30ZM19 2C21.2 2 23 3.8 23 6C23 8.2 21.2 10 19 10L15 10L15 6C15 3.8 16.8 2 19 2ZM5 6C5 3.8 6.8 2 9 2C11.2 2 13 3.8 13 6L13 10L9 10C6.8 10 5 8.2 5 6ZM2 12L9 12L13 12L15 12L19 12L26 12L26 18L2 18L2 12Z" id="Mask" fill="#00B956" stroke="none"/>
  </g>
</symbol><symbol id="search" viewBox="0 0 19 22">
  <g id="search">
    <path d="M16.25 9.125C16.25 5.18979 13.0602 2 9.125 2C5.18979 2 2 5.18979 2 9.125C2 13.0602 5.18979 16.25 9.125 16.25C13.0602 16.25 16.25 13.0602 16.25 9.125ZM18.25 9.125C18.25 14.1648 14.1648 18.25 9.125 18.25C4.08522 18.25 0 14.1648 0 9.125C0 4.08522 4.08522 0 9.125 0C14.1648 0 18.25 4.08522 18.25 9.125Z" transform="translate(0.625 0.624875)" id="Stroke-1" fill="#00B956" stroke="none"/>
    <path d="M4.876 4.0575L1.546 0L0 1.26881L3.33 5.32631L4.876 4.0575Z" transform="translate(13.757374 15.682971)" id="Stroke-3" fill="#00B956" stroke="none"/>
  </g>
</symbol><symbol id="voice" viewBox="0 0 34 32">
  <g id="Group-2" transform="translate(1 1)">
    <path d="M16.62 0C8.336 0 1.62 6.716 1.62 15C1.62 17.16 2.085 19.208 2.907 21.064L0 27.076L2.352 29.88L9.104 27.968C11.316 29.252 13.878 30 16.62 30C24.904 30 31.62 23.284 31.62 15C31.62 6.716 24.904 0 16.62 0Z" transform="translate(0.1825 -0.0001)" id="Stroke-1" fill="none" fill-rule="evenodd" stroke="#00B956" stroke-width="2"/>
    <path d="M0 8L0 0" transform="translate(8.8025 10.9999)" id="Stroke-3" fill="none" fill-rule="evenodd" stroke="#00B956" stroke-width="2"/>
    <path d="M0 0L0 12" transform="translate(16.8025 8.9999)" id="Stroke-5" fill="none" fill-rule="evenodd" stroke="#00B956" stroke-width="2"/>
    <path d="M0 0L0 4" transform="translate(12.8025 12.9999)" id="Stroke-7" fill="none" fill-rule="evenodd" stroke="#00B956" stroke-width="2"/>
    <path d="M0 2L0 0" transform="translate(20.8025 13.9999)" id="Stroke-9" fill="none" fill-rule="evenodd" stroke="#00B956" stroke-width="2"/>
    <path d="M0 8L0 0" transform="translate(24.8025 10.9999)" id="Stroke-11" fill="none" fill-rule="evenodd" stroke="#00B956" stroke-width="2"/>
  </g>
</symbol></svg>