<?xml version="1.0" encoding="utf-8"?>
<svg width="37px" height="32px" viewBox="0 0 37 32" version="1.1" xmlns:xlink="http://www.w3.org/1999/xlink" xmlns="http://www.w3.org/2000/svg">
  <defs>
    <path d="M28.2 9C25.7 4.7 21.1 2 16.1 2C8.4 2 2.1 8.3 2.1 16C2.1 23.7 8.4 30 16.1 30C21.1 30 25.7 27.3 28.2 23L29.9 24C27 28.9 21.7 32 16 32C7.2 32 0 24.8 0 16C0 7.2 7.3 0 16.1 0C21.8 0 27.1 3.1 30 8L28.2 9ZM33.1 12L31.1 12L31.1 15L28.1 15L28.1 17L31.1 17L31.1 20L33.1 20L33.1 17L36.1 17L36.1 15L33.1 15L33.1 12ZM14.1 22L14.1 20L15.1 20L15.1 18L14.1 18L14.1 15L12.1 15L12.1 18L8.4 18L10.9 10.3L9 9.7L6.3 18.1L6.1 18.7L7 20L12.1 20L12.1 22L14.1 22ZM24.5 12.8L25.7 11.2C23.4 9.4 19.9 9.7 17.9 11.8C16.7 12.9 16.1 14.4 16.1 16C16.1 17.6 16.7 19.1 17.9 20.3C19 21.4 20.5 22.1 22.1 22.1C23.4 22.1 24.7 21.7 25.7 20.9L26.1 20.6L26.1 15.1L22.1 15.1L22.1 17.1L24.1 17.1L24.1 19.6C22.6 20.5 20.5 20.2 19.3 19C18.5 18.1 18.1 17.1 18.1 16C18.1 14.9 18.5 13.9 19.3 13.2C20.6 11.8 23 11.6 24.5 12.8Z" id="path_1" />
    <clipPath id="mask_1">
      <use xlink:href="#path_1" />
    </clipPath>
  </defs>
  <g id="Group-47-Copy">
    <g id="Group-26">
      <path d="M28.2 9C25.7 4.7 21.1 2 16.1 2C8.4 2 2.1 8.3 2.1 16C2.1 23.7 8.4 30 16.1 30C21.1 30 25.7 27.3 28.2 23L29.9 24C27 28.9 21.7 32 16 32C7.2 32 0 24.8 0 16C0 7.2 7.3 0 16.1 0C21.8 0 27.1 3.1 30 8L28.2 9ZM33.1 12L31.1 12L31.1 15L28.1 15L28.1 17L31.1 17L31.1 20L33.1 20L33.1 17L36.1 17L36.1 15L33.1 15L33.1 12ZM14.1 22L14.1 20L15.1 20L15.1 18L14.1 18L14.1 15L12.1 15L12.1 18L8.4 18L10.9 10.3L9 9.7L6.3 18.1L6.1 18.7L7 20L12.1 20L12.1 22L14.1 22ZM24.5 12.8L25.7 11.2C23.4 9.4 19.9 9.7 17.9 11.8C16.7 12.9 16.1 14.4 16.1 16C16.1 17.6 16.7 19.1 17.9 20.3C19 21.4 20.5 22.1 22.1 22.1C23.4 22.1 24.7 21.7 25.7 20.9L26.1 20.6L26.1 15.1L22.1 15.1L22.1 17.1L24.1 17.1L24.1 19.6C22.6 20.5 20.5 20.2 19.3 19C18.5 18.1 18.1 17.1 18.1 16C18.1 14.9 18.5 13.9 19.3 13.2C20.6 11.8 23 11.6 24.5 12.8Z" id="Mask" fill="#00B956" stroke="none" />
    </g>
  </g>
</svg>