<?xml version="1.0" encoding="utf-8"?>
<svg width="9px" height="16px" viewBox="0 0 9 16" version="1.1" xmlns:xlink="http://www.w3.org/1999/xlink" xmlns="http://www.w3.org/2000/svg">
  <path d="M2.3566 3.64202L2.3566 5.66197L0 5.66197L0 8.44705L2.3566 8.44705L2.3566 15.5781L5.2335 15.5781L5.2335 8.44705L7.5901 8.44705L7.92676 5.66197L5.2335 5.66197L5.2335 3.91747C5.2335 3.44819 5.32531 3.09623 5.50894 2.86159C5.69258 2.62695 6.05984 2.50963 6.61073 2.50963L8.11039 2.50963L8.11039 0.0918157C8.08999 0.0918157 7.82474 0.0765133 7.31465 0.0459079C6.80456 0.0153025 6.34549 0 5.93742 0C4.85603 0 3.98889 0.31115 3.33597 0.93346C2.68306 1.55577 2.3566 2.45862 2.3566 3.64202Z" id="î¤" fill="currentColor" fill-rule="evenodd" stroke="none" />
</svg>
