<?xml version="1.0" encoding="utf-8"?>
<svg width="30px" height="24px" viewBox="0 0 30 24" version="1.1" xmlns:xlink="http://www.w3.org/1999/xlink" xmlns="http://www.w3.org/2000/svg">
  <g id="Group" transform="translate(1 1)">
    <path d="M0 9.0006L6.0704 7.3836C7.399 3.1066 11.3862 0 16.1 0C21.9002 0 26.6 4.7012 26.6 10.5C26.6 16.3002 21.9002 21 16.1 21C11.3862 21 7.399 17.8948 6.0704 13.6178L0 12.0008L0 9.0006Z" transform="translate(0.7 0.69958)" id="Stroke-1" fill="none" fill-rule="evenodd" stroke="#333333" stroke-width="2" />
    <path d="M2.8 1.4C2.8 2.1742 2.1742 2.8 1.4 2.8C0.6258 2.8 0 2.1742 0 1.4C0 0.6258 0.6258 0 1.4 0C2.1742 0 2.8 0.6258 2.8 1.4" transform="translate(11.2 9.8)" id="Fill-3" fill="#333333" fill-rule="evenodd" stroke="none" />
    <path d="M2.8 1.4C2.8 2.1742 2.1742 2.8 1.4 2.8C0.6258 2.8 0 2.1742 0 1.4C0 0.6258 0.6258 0 1.4 0C2.1742 0 2.8 0.6258 2.8 1.4" transform="translate(15.4 9.8)" id="Fill-5" fill="#333333" fill-rule="evenodd" stroke="none" />
    <path d="M2.8 1.4C2.8 2.1742 2.1742 2.8 1.4 2.8C0.6258 2.8 0 2.1742 0 1.4C0 0.6258 0.6258 0 1.4 0C2.1742 0 2.8 0.6258 2.8 1.4" transform="translate(19.6 9.8)" id="Fill-7" fill="#333333" fill-rule="evenodd" stroke="none" />
  </g>
</svg>