<?xml version="1.0" encoding="utf-8"?>
<svg width="19px" height="22px" viewBox="0 0 19 22" version="1.1" xmlns:xlink="http://www.w3.org/1999/xlink" xmlns="http://www.w3.org/2000/svg">
  <g id="search">
    <path d="M16.25 9.125C16.25 5.18979 13.0602 2 9.125 2C5.18979 2 2 5.18979 2 9.125C2 13.0602 5.18979 16.25 9.125 16.25C13.0602 16.25 16.25 13.0602 16.25 9.125ZM18.25 9.125C18.25 14.1648 14.1648 18.25 9.125 18.25C4.08522 18.25 0 14.1648 0 9.125C0 4.08522 4.08522 0 9.125 0C14.1648 0 18.25 4.08522 18.25 9.125Z" transform="translate(0.625 0.624875)" id="Stroke-1" fill="#00B956" stroke="none" />
    <path d="M4.876 4.0575L1.546 0L0 1.26881L3.33 5.32631L4.876 4.0575Z" transform="translate(13.757374 15.682971)" id="Stroke-3" fill="#00B956" stroke="none" />
  </g>
</svg>