<?xml version="1.0" encoding="utf-8"?>
<svg width="844px" height="150px" viewBox="0 0 844 150" version="1.1" xmlns:xlink="http://www.w3.org/1999/xlink" xmlns="http://www.w3.org/2000/svg">
  <g id="logo">
    <g id="Group">
      <path d="M56.7 0L56.7 28.3L18.7 28.3L18.7 0L0 0L0 74.8L18.7 74.8L18.7 44.6L56.7 44.6L56.7 74.8L75.5 74.8L75.5 0L56.7 0Z" transform="translate(768.4 41.2)" id="Shape" fill="#00B956" stroke="none" />
      <path d="M33 45.7L44.5 18.6C44.9 17.8 45.5 17.5 46 17.5L46 17.5L46 17.5C46.5 17.5 47.2 17.7 47.5 18.6L59 45.7L33 45.7ZM61.4 10.1C58.3 3.3 52 0 46 0L46 0L46 0L46 0C40 0 33.7 3.3 30.6 10.1L0 76.5L19.9 76.5L26.6 60.7L65.4 60.7L72.1 76.5L92 76.5L61.4 10.1Z" transform="translate(451.8 39.5)" id="Shape" fill="#00B956" stroke="none" />
      <path d="M102.5 0C93.7 0 88.1 4.7 84 14.1L59.6 70.3L35.2 14.1C31.1 4.7 25.5 1.42109e-14 16.7 1.42109e-14C8.5 1.42109e-14 0 5.9 0 18.6L0 88.3L18.7 88.3L18.7 20.6L43.3 76.4C46.6 84.2 51.9 89.1 59.6 89.1L59.6 89.1L59.6 89.1C67.3 89.1 72.6 84.2 75.9 76.4L100.5 20.6L100.5 88.3L119.2 88.3L119.2 18.7C119.2 5.9 110.7 0 102.5 0" transform="translate(187.8 27.7)" id="Shape" fill="#00B956" stroke="none" />
      <path d="M20.3 59C19.4 59 18.7 58.3 18.7 57.4L18.7 44.1L65.4 44.1L65.4 28.8L18.7 28.8L18.7 17.4C18.7 16.5 19.4 15.8 20.3 15.8L66.5 15.8L66.5 0L11.1 0C4.6 0 0 5.4 0 11.1L0 63.5C0 69.2 4.7 74.6 11.1 74.6L66.5 74.6L66.5 58.8L20.3 58.8L20.3 59Z" transform="translate(319.5 41.2)" id="Shape" fill="#00B956" stroke="none" />
      <path d="M18.7 74.7L18.7 17.4C18.7 16.5 19.4 15.8 20.3 15.8L66.5 15.8L66.5 0L11.1 0C4.6 0 0 5.4 0 11.1L0 74.7L18.7 74.7Z" transform="translate(399.1 41.3)" id="Shape" fill="#00B956" stroke="none" />
      <path d="M45.9 61.1L39.9 61.1C24.3 61.1 18.2 54.1 18.2 38.4L18.2 38.3C18.2 23.1 23.5 15.6 39.9 15.6L45.9 15.6C61.8 15.6 67.6 23.1 67.6 38.3L67.6 38.4C67.6 54.1 61.4 61.1 45.9 61.1L45.9 61.1ZM85.8 38.4C85.8 12.2 74.5 0 46.2 0L39.6 0C11.2 0 0 12.2 0 38.4L0 38.4C0 64.2 11.5 76.6 39.8 76.6L46 76.6C74.3 76.6 85.8 64.2 85.8 38.4L85.8 38.4Z" transform="translate(670.2 40.1)" id="Shape" fill="#00B956" stroke="none" />
      <path d="M95.2 49C92.4 56.4 87.8 61.1 75.2 61.1L66.6 61.1L66.6 15.7L78.1 15.7C88.9 15.7 96.3 22.4 96.3 38.4C96.3 42.5 96.3 46.1 95.2 49L95.2 49ZM47.9 61.1L39.3 61.1C26.6 61.1 22.1 56.4 19.3 49C18.2 46.1 18.2 42.5 18.2 38.4C18.2 22.5 25.6 15.7 36.4 15.7L47.9 15.7L47.9 61.1ZM75.8 0L38.7 0C11 0 0 14 0 38.4C0 42.2 0.2 45.7 0.8 49C3.7 66.3 13.9 76.9 39.8 76.9L48 76.9L48 86.5L66.7 86.5L66.7 76.9L74.8 76.9C100.7 76.9 110.9 66.3 113.8 49C114.3 45.7 114.6 42.2 114.6 38.4C114.5 14 103.4 0 75.8 0L75.8 0Z" transform="translate(542.2 29.5)" id="Shape" fill="#00B956" stroke="none" />
      <path d="M58.5 115.3C53.3 115.3 49.1 111.1 49.1 105.9C49.1 100.7 53.3 96.5 58.5 96.5C63.7 96.5 67.9 100.7 67.9 105.9C67.9 111.1 63.7 115.3 58.5 115.3M36.5 115.3C31.3 115.3 27.1 111.1 27.1 105.9C27.1 100.7 31.3 96.5 36.5 96.5C41.7 96.5 45.9 100.7 45.9 105.9C45.9 111.1 41.7 115.3 36.5 115.3M14.5 115.3C9.3 115.3 5.1 111.1 5.1 105.9C5.1 100.7 9.3 96.5 14.5 96.5C19.7 96.5 23.9 100.7 23.9 105.9C23.9 111.1 19.7 115.3 14.5 115.3M16.1 0L16.1 77.3L16.1 77.3L16.1 77.3C16.1 80.7 13.3 83.4 10 83.4L0.8 83.4C0.3 83.4 0 83.8 0 84.2L0 149C2.3 149.2 4.6 149.3 6.9 149.3C48.3 149.3 81.9 115.7 81.9 74.3C81.8 36.1 53.1 4.5 16.1 0" transform="translate(68.2 0.6)" id="Shape" fill="#00B956" stroke="none" />
      <path d="M60.6 61.8C55.4 61.8 51.2 57.6 51.2 52.4C51.2 47.2 55.4 43 60.6 43C65.8 43 70 47.2 70 52.4C70 57.6 65.8 61.8 60.6 61.8L60.6 61.8ZM75 1.42109e-14C33.6 1.42109e-14 0 33.6 0 75C0 111 25.3 141 59.1 148.3L59.1 81L59.1 81C59.2 77.8 61.8 75.1 65 75L65 75L68.1 75L74.4 75C74.8 75 75.2 74.7 75.2 74.2L75.2 0L75 1.42109e-14Z" id="Shape" fill="#00B956" stroke="none" />
    </g>
  </g>
</svg>