<?xml version="1.0" encoding="utf-8"?>
<svg width="151px" height="150px" viewBox="0 0 151 150" version="1.1" xmlns:xlink="http://www.w3.org/1999/xlink" xmlns="http://www.w3.org/2000/svg">
  <g id="logo">
    <path d="M58.5 115.3C53.3 115.3 49.1 111.1 49.1 105.9C49.1 100.7 53.3 96.5 58.5 96.5C63.7 96.5 67.9 100.7 67.9 105.9C67.9 111.1 63.7 115.3 58.5 115.3M36.5 115.3C31.3 115.3 27.1 111.1 27.1 105.9C27.1 100.7 31.3 96.5 36.5 96.5C41.7 96.5 45.9 100.7 45.9 105.9C45.9 111.1 41.7 115.3 36.5 115.3M14.5 115.3C9.3 115.3 5.1 111.1 5.1 105.9C5.1 100.7 9.3 96.5 14.5 96.5C19.7 96.5 23.9 100.7 23.9 105.9C23.9 111.1 19.7 115.3 14.5 115.3M16.1 0L16.1 77.3L16.1 77.3L16.1 77.3C16.1 80.7 13.3 83.4 10 83.4L0.8 83.4C0.3 83.4 0 83.8 0 84.2L0 149C2.3 149.2 4.6 149.3 6.9 149.3C48.3 149.3 81.9 115.7 81.9 74.3C81.8 36.1 53.1 4.5 16.1 0" transform="translate(68.2 0.6)" id="Shape" fill="#00B956" stroke="none" />
    <path d="M60.6 61.8C55.4 61.8 51.2 57.6 51.2 52.4C51.2 47.2 55.4 43 60.6 43C65.8 43 70 47.2 70 52.4C70 57.6 65.8 61.8 60.6 61.8L60.6 61.8ZM75 1.42109e-14C33.6 1.42109e-14 0 33.6 0 75C0 111 25.3 141 59.1 148.3L59.1 81L59.1 81C59.2 77.8 61.8 75.1 65 75L65 75L68.1 75L74.4 75C74.8 75 75.2 74.7 75.2 74.2L75.2 0L75 1.42109e-14Z" id="Shape" fill="#00B956" stroke="none" />
  </g>
</svg>